<svg height="512pt" viewBox="-47 0 512 512" width="512pt" xmlns="http://www.w3.org/2000/svg"><path d="m8.535156 426.667969c-4.710937 0-8.535156-3.824219-8.535156-8.535157v-341.332031c0-42.34375 34.457031-76.800781 76.800781-76.800781h332.800781c4.707032 0 8.53125 3.824219 8.53125 8.535156v341.332032c0 4.710937-3.824218 8.53125-8.53125 8.53125h-332.800781c-32.9375 0-59.734375 26.796874-59.734375 59.734374 0 4.710938-3.824218 8.535157-8.53125 8.535157zm68.265625-409.601563c-32.9375 0-59.734375 26.796875-59.734375 59.734375v293.109375c14.089844-17.414062 35.636719-28.578125 59.734375-28.578125h324.265625v-324.265625zm0 0"/><path d="m136.535156 426.667969h-59.734375c-4.710937 0-8.535156-3.824219-8.535156-8.535157 0-4.710937 3.824219-8.53125 8.535156-8.53125h59.734375c4.707032 0 8.53125 3.820313 8.53125 8.53125 0 4.710938-3.824218 8.535157-8.53125 8.535157zm0 0"/><path d="m238.933594 426.667969h-51.199219c-4.710937 0-8.535156-3.824219-8.535156-8.535157 0-4.710937 3.824219-8.53125 8.535156-8.53125h51.199219c4.710937 0 8.53125 3.820313 8.53125 8.53125 0 4.710938-3.820313 8.535157-8.53125 8.535157zm0 0"/><path d="m409.601562 426.667969h-42.667968c-4.710938 0-8.535156-3.824219-8.535156-8.535157 0-4.710937 3.824218-8.53125 8.535156-8.53125h42.667968c4.707032 0 8.53125 3.820313 8.53125 8.53125 0 4.710938-3.824218 8.535157-8.53125 8.535157zm0 0"/><path d="m8.535156 426.667969c-4.710937 0-8.535156-3.824219-8.535156-8.535157v-341.332031c0-38.5625 28.886719-71.289062 67.199219-76.136719 2.441406-.3125 4.875.445313 6.707031 2.066407 1.835938 1.613281 2.894531 3.949219 2.894531 6.398437v341.335938c0 4.300781-3.199219 7.925781-7.46875 8.464844-29.796875 3.761718-52.265625 29.21875-52.265625 59.203124 0 4.710938-3.824218 8.535157-8.53125 8.535157zm51.199219-407.050781c-24.894531 7.433593-42.667969 30.515624-42.667969 57.183593v293.179688c10.605469-13.125 25.480469-22.75 42.667969-26.667969zm0 0"/><path d="m8.535156 196.265625c-4.710937 0-8.535156-3.820313-8.535156-8.53125v-52.394531c0-38.5625 28.886719-71.289063 67.199219-76.136719 2.441406-.332031 4.875.445313 6.707031 2.066406 1.835938 1.621094 2.894531 3.949219 2.894531 6.398438v52.394531c0 4.300781-3.199219 7.929688-7.46875 8.464844-29.796875 3.765625-52.265625 29.21875-52.265625 59.207031 0 4.710937-3.824218 8.53125-8.53125 8.53125zm51.199219-118.101563c-24.894531 7.433594-42.667969 30.515626-42.667969 57.183594v4.242188c10.605469-13.125 25.480469-22.75 42.667969-26.667969zm0 0"/><path d="m8.535156 333.398438c-4.710937 0-8.535156-3.824219-8.535156-8.535157v-52.394531c0-38.5625 28.886719-71.285156 67.199219-76.132812 2.449219-.324219 4.875.441406 6.714843 2.0625 1.828126 1.613281 2.886719 3.953124 2.886719 6.402343v52.394531c0 4.300782-3.199219 7.925782-7.46875 8.464844-29.796875 3.761719-52.265625 29.21875-52.265625 59.203125 0 4.710938-3.824218 8.535157-8.53125 8.535157zm51.199219-118.109376c-24.894531 7.429688-42.667969 30.511719-42.667969 57.179688v4.242188c10.605469-13.125 25.480469-22.75 42.667969-26.667969zm0 0"/><path d="m187.734375 512c-2.21875 0-4.402344-.871094-6.035156-2.5l-19.566407-19.566406-19.566406 19.566406c-2.441406 2.441406-6.109375 3.15625-9.300781 1.851562-3.183594-1.324218-5.265625-4.4375-5.265625-7.886718v-85.332032c0-4.710937 3.824219-8.53125 8.535156-8.53125h51.199219c4.710937 0 8.53125 3.820313 8.53125 8.53125v85.332032c0 3.449218-2.082031 6.5625-5.265625 7.886718-1.054688.433594-2.164062.648438-3.265625.648438zm-25.601563-42.667969c2.183594 0 4.371094.835938 6.035157 2.5l11.03125 11.035157v-56.199219h-34.132813v56.199219l11.035156-11.035157c1.664063-1.664062 3.847657-2.5 6.03125-2.5zm0 0"/><path d="m409.601562 460.800781h-221.867187c-4.710937 0-8.535156-3.824219-8.535156-8.535156v-25.597656h-34.132813v25.597656c0 4.710937-3.824218 8.535156-8.53125 8.535156h-59.734375c-23.527343 0-42.667969-19.140625-42.667969-42.667969 0-23.527343 19.140626-42.667968 42.667969-42.667968h332.800781c4.707032 0 8.53125 3.824218 8.53125 8.535156v68.265625c0 4.710937-3.824218 8.535156-8.53125 8.535156zm-213.335937-17.066406h204.800781v-51.199219h-324.265625c-14.113281 0-25.601562 11.484375-25.601562 25.597656 0 14.113282 11.488281 25.601563 25.601562 25.601563h51.199219v-25.601563c0-4.710937 3.824219-8.53125 8.535156-8.53125h51.199219c4.710937 0 8.53125 3.820313 8.53125 8.53125zm0 0"/><path d="m409.601562 494.933594h-221.867187c-4.710937 0-8.535156-3.824219-8.535156-8.535156v-59.730469h-34.132813v59.730469c0 4.710937-3.824218 8.535156-8.53125 8.535156h-59.734375c-42.34375 0-76.800781-34.457032-76.800781-76.800782s34.457031-76.800781 76.800781-76.800781h332.800781c4.707032 0 8.53125 3.824219 8.53125 8.535157v136.53125c0 4.710937-3.824218 8.535156-8.53125 8.535156zm-213.335937-17.066406h204.800781v-119.46875h-324.265625c-32.9375 0-59.734375 26.796874-59.734375 59.734374s26.796875 59.734376 59.734375 59.734376h51.199219v-59.734376c0-4.710937 3.824219-8.53125 8.535156-8.53125h51.199219c4.710937 0 8.53125 3.820313 8.53125 8.53125zm0 0"/><path d="m273.066406 324.265625h-68.265625c-4.710937 0-8.535156-3.820313-8.535156-8.53125v-136.535156h-59.730469c-4.710937 0-8.535156-3.820313-8.535156-8.53125v-59.734375c0-4.710938 3.824219-8.535156 8.535156-8.535156h59.730469v-59.730469c0-4.710938 3.824219-8.535157 8.535156-8.535157h68.265625c4.710938 0 8.535156 3.824219 8.535156 8.535157v59.730469h59.730469c4.710938 0 8.535157 3.824218 8.535157 8.535156v59.734375c0 4.710937-3.824219 8.53125-8.535157 8.53125h-59.730469v136.535156c0 4.710937-3.824218 8.53125-8.535156 8.53125zm-59.734375-17.066406h51.203125v-136.53125c0-4.710938 3.820313-8.535157 8.53125-8.535157h59.734375v-42.667968h-59.734375c-4.710937 0-8.53125-3.820313-8.53125-8.53125v-59.734375h-51.203125v59.734375c0 4.710937-3.820312 8.53125-8.53125 8.53125h-59.734375v42.667968h59.734375c4.710938 0 8.53125 3.824219 8.53125 8.535157zm0 0"/></svg>