<svg xmlns="http://www.w3.org/2000/svg" height="683" viewBox="-47 0 512 512" width="683"><path d="M8.535 426.668A8.54 8.54 0 0 1 0 418.133V76.8C0 34.457 34.457 0 76.8 0h332.8a8.54 8.54 0 0 1 8.531 8.535v341.332c0 4.7-3.824 8.53-8.53 8.53H76.8c-32.937 0-59.734 26.797-59.734 59.734a8.54 8.54 0 0 1-8.531 8.535zM76.8 17.066c-32.937 0-59.734 26.797-59.734 59.734v293.1c14.1-17.414 35.637-28.578 59.734-28.578h324.266V17.066zm59.735 409.602H76.8a8.54 8.54 0 0 1-8.535-8.535 8.54 8.54 0 0 1 8.535-8.531h59.734c4.707 0 8.53 3.82 8.53 8.53a8.54 8.54 0 0 1-8.531 8.535zm102.4 0h-51.2a8.54 8.54 0 0 1-8.535-8.535 8.54 8.54 0 0 1 8.535-8.531h51.2a8.54 8.54 0 0 1 8.53 8.53 8.54 8.54 0 0 1-8.531 8.535zm170.668 0h-42.668a8.54 8.54 0 0 1-8.535-8.535 8.54 8.54 0 0 1 8.535-8.531h42.668c4.707 0 8.53 3.82 8.53 8.53a8.54 8.54 0 0 1-8.531 8.535zm0 0"/><path d="M8.535 426.668A8.54 8.54 0 0 1 0 418.133V76.8C0 38.238 28.887 5.512 67.2.664a8.48 8.48 0 0 1 6.707 2.066 8.53 8.53 0 0 1 2.895 6.398v341.336c0 4.3-3.2 7.926-7.47 8.465-29.797 3.762-52.266 29.22-52.266 59.203a8.54 8.54 0 0 1-8.531 8.535zm51.2-407.05C34.84 27.05 17.066 50.133 17.066 76.8v293.18c10.605-13.125 25.48-22.75 42.668-26.668zm0 0"/><path d="M8.535 196.266A8.54 8.54 0 0 1 0 187.734V135.34c0-38.562 28.887-71.3 67.2-76.137 2.44-.332 4.875.445 6.707 2.066a8.54 8.54 0 0 1 2.895 6.398v52.395a8.53 8.53 0 0 1-7.469 8.465c-29.797 3.766-52.266 29.22-52.266 59.207 0 4.7-3.824 8.53-8.53 8.53zm51.2-118.102c-24.895 7.434-42.668 30.516-42.668 57.184v4.242c10.605-13.125 25.48-22.75 42.668-26.668zm-51.2 255.234A8.54 8.54 0 0 1 0 324.863V272.47c0-38.562 28.887-71.285 67.2-76.133a8.45 8.45 0 0 1 6.715 2.063c1.828 1.613 2.887 3.953 2.887 6.402v52.395c0 4.3-3.2 7.926-7.47 8.465-29.797 3.762-52.266 29.22-52.266 59.203a8.54 8.54 0 0 1-8.531 8.535zm51.2-118.1c-24.895 7.43-42.668 30.512-42.668 57.18v4.242c10.605-13.125 25.48-22.75 42.668-26.668zm128 296.702a8.55 8.55 0 0 1-6.035-2.5l-19.566-19.566-19.566 19.566c-2.44 2.44-6.1 3.156-9.3 1.852a8.55 8.55 0 0 1-5.266-7.887v-85.332a8.54 8.54 0 0 1 8.535-8.531h51.2c4.7 0 8.53 3.82 8.53 8.53v85.332a8.55 8.55 0 0 1-5.266 7.887 8.58 8.58 0 0 1-3.266.648zm-25.602-42.668c2.184 0 4.37.836 6.035 2.5l11.03 11.035v-56.2h-34.133v56.2l11.035-11.035c1.664-1.664 3.848-2.5 6.03-2.5zm0 0"/><path d="M409.602 460.8H187.734a8.54 8.54 0 0 1-8.535-8.535v-25.598h-34.133v25.598a8.54 8.54 0 0 1-8.531 8.535h-59.734c-23.527 0-42.668-19.14-42.668-42.668s19.14-42.668 42.668-42.668h332.8a8.54 8.54 0 0 1 8.531 8.535v68.266a8.54 8.54 0 0 1-8.531 8.535zm-213.336-17.066h204.8v-51.2H76.8c-14.113 0-25.602 11.484-25.602 25.598s11.488 25.602 25.602 25.602H128v-25.602a8.54 8.54 0 0 1 8.535-8.531h51.2c4.71 0 8.53 3.82 8.53 8.53zm0 0"/><path d="M409.602 494.934H187.734a8.54 8.54 0 0 1-8.535-8.535v-59.73h-34.133v59.73a8.54 8.54 0 0 1-8.531 8.535H76.8c-42.344 0-76.8-34.457-76.8-76.8s34.457-76.8 76.8-76.8h332.8a8.54 8.54 0 0 1 8.531 8.535v136.53a8.54 8.54 0 0 1-8.531 8.535zm-213.336-17.066h204.8v-119.47H76.8c-32.937 0-59.734 26.797-59.734 59.734s26.797 59.734 59.734 59.734H128v-59.734a8.54 8.54 0 0 1 8.535-8.531h51.2c4.7 0 8.53 3.82 8.53 8.53zm76.8-153.602H204.8a8.54 8.54 0 0 1-8.535-8.531V179.2h-59.73a8.54 8.54 0 0 1-8.535-8.531v-59.734a8.54 8.54 0 0 1 8.535-8.535h59.73V42.67a8.54 8.54 0 0 1 8.535-8.535h68.266a8.54 8.54 0 0 1 8.535 8.535v59.73h59.73a8.54 8.54 0 0 1 8.535 8.535v59.734a8.54 8.54 0 0 1-8.535 8.531H281.6v136.535a8.54 8.54 0 0 1-8.535 8.531zM213.332 307.2h51.203V170.67a8.54 8.54 0 0 1 8.531-8.535H332.8v-42.668h-59.734c-4.7 0-8.53-3.82-8.53-8.53V51.2h-51.203v59.734c0 4.7-3.82 8.53-8.53 8.53H145.07v42.668h59.73a8.54 8.54 0 0 1 8.531 8.535zm0 0"/></svg>