<svg xmlns="http://www.w3.org/2000/svg" height="683" viewBox="0 -12 512 512" width="683"><path d="M504.5 472.95h-11.45L342.063 178.52c-5.863-11.426-19.977-16.05-31.465-10.31l-12.137 6.07-20.316-28.445c-3.594-5.027-8.812-8.316-14.645-9.43V79.13h72.66a7.5 7.5 0 0 0 6.242-11.66l-13.258-19.89 13.258-19.887a7.5 7.5 0 0 0-6.242-11.66h-72.66V7.5c0-4.14-3.36-7.5-7.5-7.5s-7.5 3.36-7.5 7.5v130.93c-4.723 2.332-8.562 6.22-10.87 11.223L157.5 323.258l-9.043-12.06c-4.78-6.38-12.387-9.88-20.344-9.363s-15.047 4.965-18.97 11.902L19.156 472.95H7.5c-4.14 0-7.5 3.36-7.5 7.5a7.5 7.5 0 0 0 7.5 7.5h497a7.5 7.5 0 0 0 7.5-7.5c0-4.14-3.36-7.5-7.5-7.5zM322.148 31.03l-8.262 12.39c-1.68 2.516-1.68 5.8 0 8.316l8.262 12.39H263.5V31.03zm-199.945 290.1a8.39 8.39 0 0 1 6.879-4.316 8.39 8.39 0 0 1 7.375 3.395l22.04 29.387c2.488 3.313 7.188 3.984 10.5 1.5s3.984-7.184 1.5-10.5l-2.77-3.69L215.27 233.89l24.1 24.1a23.38 23.38 0 0 0 33.281 0l14.395-14.395c.043-.043.164-.156.395-.148s.336.145.375.19l2.4 3.016a7.5 7.5 0 0 0 11.711-9.371l-2.4-3.016a15.52 15.52 0 0 0-11.258-5.797c-4.406-.242-8.71 1.402-11.828 4.52l-14.398 14.395c-1.61 1.613-3.754 2.5-6.03 2.5s-4.422-.887-6.03-2.5l-28-28 29.277-63.437c1.855-4.023 5.477-4.78 6.945-4.918s5.168-.074 7.746 3.535l24.04 33.656c2.148 3.004 6.16 4 9.457 2.352l17.87-8.937c4.168-2.082 9.285-.406 11.4 3.738l39.73 77.477-11.754 23.508c-1.328 2.652-3.78 4.355-6.73 4.668a8.38 8.38 0 0 1-7.562-3.156l-20.648-25.81a7.5 7.5 0 0 0-10.543-1.172c-3.234 2.586-3.758 7.31-1.172 10.543l20.648 25.81c4.512 5.637 11.23 8.836 18.34 8.836.836 0 1.676-.047 2.516-.133 8.023-.852 14.965-5.664 18.57-12.88l6.828-13.656 99.254 193.55H331.57l-88.95-102.633c-4.684-5.402-11.457-8.352-18.613-8.105a23.43 23.43 0 0 0-17.996 9.398l-6.125 8.164-10.66-14.21a7.5 7.5 0 0 0-10.5-1.5c-3.312 2.484-3.984 7.188-1.5 10.5l16.66 22.21a7.5 7.5 0 0 0 12 0l12.125-16.164c1.555-2.074 3.934-3.316 6.523-3.406 2.582-.094 5.05.977 6.75 2.938l80.437 92.813H36.387zm0 0"/></svg>