<svg height="512pt" viewBox="0 -12 512 512" width="512pt" xmlns="http://www.w3.org/2000/svg"><path d="m504.5 472.949219h-11.449219l-150.988281-294.429688c-5.863281-11.425781-19.976562-16.050781-31.464844-10.308593l-12.136718 6.070312-20.316407-28.445312c-3.59375-5.027344-8.8125-8.316407-14.644531-9.429688v-57.277344h72.660156c2.769532 0 5.308594-1.523437 6.613282-3.960937 1.304687-2.441407 1.164062-5.398438-.371094-7.699219l-13.257813-19.890625 13.257813-19.886719c1.535156-2.300781 1.675781-5.257812.371094-7.699218-1.304688-2.4375-3.84375-3.960938-6.613282-3.960938h-72.660156v-8.53125c0-4.140625-3.359375-7.5-7.5-7.5s-7.5 3.359375-7.5 7.5v130.929688c-4.722656 2.332031-8.5625 6.21875-10.871094 11.222656l-80.128906 173.605468-9.042969-12.058593c-4.78125-6.378907-12.386719-9.878907-20.34375-9.363281-7.953125.515624-15.046875 4.964843-18.96875 11.902343l-89.988281 159.210938h-11.65625c-4.140625 0-7.5 3.359375-7.5 7.5 0 4.144531 3.359375 7.5 7.5 7.5h497c4.140625 0 7.5-3.355469 7.5-7.5 0-4.140625-3.359375-7.5-7.5-7.5zm-182.351562-441.917969-8.261719 12.390625c-1.679688 2.515625-1.679688 5.800781 0 8.316406l8.261719 12.390625h-58.648438v-33.097656zm-199.945313 290.089844c1.445313-2.554688 3.949219-4.128906 6.878906-4.316406 2.929688-.1875 5.613281 1.046874 7.375 3.394531l22.039063 29.386719c2.488281 3.3125 7.1875 3.984374 10.5 1.5 3.3125-2.484376 3.984375-7.183594 1.5-10.5l-2.769532-3.691407 47.542969-103.003906 24.089844 24.089844c4.445313 4.445312 10.355469 6.894531 16.640625 6.894531s12.195312-2.449219 16.640625-6.894531l14.394531-14.394531c.042969-.042969.164063-.15625.394532-.148438.230468.011719.335937.144531.375.191406l2.410156 3.015625c2.585937 3.234375 7.308594 3.757813 10.542968 1.167969 3.230469-2.585938 3.757813-7.304688 1.167969-10.539062l-2.410156-3.015626c-2.75-3.441406-6.855469-5.554687-11.257813-5.796874-4.40625-.242188-8.710937 1.402343-11.828124 4.519531l-14.398438 14.394531c-1.609375 1.613281-3.753906 2.5-6.03125 2.5s-4.421875-.886719-6.03125-2.5l-28-28 29.277344-63.4375c1.855468-4.023438 5.476562-4.78125 6.945312-4.917969 1.472656-.140625 5.167969-.074219 7.746094 3.535157l24.039062 33.65625c2.148438 3.003906 6.160157 4 9.457032 2.351562l17.871094-8.9375c4.167968-2.082031 9.285156-.40625 11.410156 3.738281l39.730468 77.476563-11.753906 23.507812c-1.328125 2.652344-3.78125 4.355469-6.730468 4.667969-2.953126.3125-5.707032-.835937-7.5625-3.15625l-20.648438-25.808594c-2.589844-3.234375-7.308594-3.761719-10.542969-1.171875-3.234375 2.585938-3.757812 7.308594-1.171875 10.542969l20.648438 25.808594c4.511718 5.636719 11.230468 8.835937 18.339844 8.835937.835937 0 1.675781-.046875 2.515624-.132812 8.023438-.851563 14.964844-5.664063 18.570313-12.878906l6.828125-13.65625 99.253906 193.550781h-144.621094l-88.949218-102.632813c-4.683594-5.402344-11.457032-8.351562-18.613282-8.105468-7.148437.253906-13.707031 3.679687-17.996093 9.398437l-6.125 8.164063-10.660157-14.210938c-2.484374-3.316406-7.183593-3.984375-10.5-1.5-3.3125 2.484375-3.984374 7.1875-1.5 10.5l16.660157 22.210938c1.417969 1.890624 3.640625 3 6 3s4.582031-1.109376 6-3l12.125-16.164063c1.554687-2.074219 3.933593-3.316406 6.523437-3.40625 2.582032-.09375 5.050782.976563 6.75 2.9375l80.4375 92.8125h-275.335937zm0 0"/></svg>