<svg width="210" height="44">
            <g style="fill:white" transform="translate(-3,-6)">
                        <path d="m 14.147,13.77 c -0.134,0.002 -0.18,-0.02 -0.31,-0.08 -0.067,-0.03 -0.09,-0.04 -0.16,-0.085 -0.117,-0.077 -0.005,0.022 -0.12,-0.1 -0.264,0.064 -0.143,-0.04 -0.176,-0.072 -0.168,0.01 -0.18,-0.02 -0.363,-0.092 l -0.203,-0.083 c -0.142,-0.077 -0.064,-0.025 -0.144,-0.105 -0.2,10e-4 -1.022,-0.344 -1.3,-0.44 -0.77,-0.264 -1.985,-0.564 -2.792,-0.732 -0.268,-0.055 -1.236,-0.328 -1.403,-0.185 -0.112,1.59 0.177,4.676 0.564,6.05 0.647,2.3 2.048,4.245 2.135,4.545 -0.382,-0.014 -0.833,-0.103 -1.222,-0.14 l -1.33,-0.152 -2.03,0.02 c -0.16,0.037 -0.794,-0.004 -0.813,0.224 -0.176,1.92 0.487,4.604 1.06,6.085 0.67,1.734 1.8,3.2 3.005,4.172 2.533,2.064 6.312,3.153 9.677,2.34 l 0.683,-0.193 c 0.298,-0.09 0.46,-0.194 0.786,-0.227 0.185,-0.033 0.336,-0.135 0.5,-0.217 a 4.499,4.499 0 0 0 0.252,-0.135 l 0.28,-0.116 c 0.046,-0.165 -0.02,-0.05 0.064,-0.174 -2.025,-0.08 -2.857,0.063 -5.018,-0.496 -3.154,-0.815 -4.64,-2.098 -6.6,-4.443 -0.4,-0.478 -2.06,-2.768 -2.09,-3.403 C 7.019,25.481 7.045,25.516 6.992,25.434 6.947,25.364 6.965,25.404 6.93,25.319 6.883,25.204 6.868,25.156 6.888,25.037 6.768,24.924 6.861,25.117 6.756,24.833 6.716,24.725 6.718,24.683 6.726,24.57 6.592,24.432 6.603,24.325 6.631,24.123 c 1.33,-0.053 3.598,0.458 4.94,0.984 0.358,0.14 1.08,0.537 1.38,0.6 l -0.02,-0.262 c 0.015,-1.033 -0.5,-2.204 -1.29,-2.676 -0.162,-0.098 -0.415,-0.187 -0.53,-0.295 -0.137,-0.128 -0.505,-0.756 -0.63,-0.97 C 9.985,20.661 8.493,18.111 8.626,16.912 8.543,16.798 8.559,16.735 8.546,16.542 l -0.02,-0.445 0.02,-0.883 0.028,-0.395 0.028,-0.213 c 0.02,-0.337 0.045,-0.668 0.164,-0.93 0.656,0.035 3.394,1.375 3.964,1.716 0.578,0.347 1.1,0.72 1.646,1.166 l 1.435,1.416 c 0.023,-0.185 -0.01,-0.46 0.094,-0.6 -0.182,-1.284 0.616,-4.37 1.038,-5.408 l 0.093,-0.34 0.158,-0.55 0.08,-0.4 0.12,-0.42 0.037,-0.23 c 0.59,-0.033 1.52,0.725 1.813,1.006 1.097,1.053 1.784,2.478 2.262,3.974 0.056,0.174 0.03,0.083 0.075,0.25 l 0.202,0.854 c 0.04,0.235 0.018,0.387 0.145,0.52 0.13,0.116 1.298,0.348 1.54,0.335 l 0.022,-0.092 0.262,-1.198 0.053,-0.283 0.143,-0.617 0.217,-0.998 c 0.374,0.093 1.442,1.165 1.705,1.444 2.145,2.277 2.32,4.045 2.273,7.28 0.067,0.045 -0.015,0.05 0.11,-0.015 0.056,-0.23 0.206,-0.526 0.294,-0.788 a 9.15,9.15 0 0 0 0.488,-3.006 C 29.008,15.762 26.933,12.69 24.483,11.74 a 3.73,3.73 0 0 0 -1.425,-0.268 c -0.226,0.004 -0.348,-0.017 -0.4,0.154 -0.084,0.282 -0.386,1.84 -0.536,2.043 -0.127,-0.14 -0.286,-0.443 -0.367,-0.656 l -0.518,-0.9 C 21.107,11.981 21.122,12.001 21.1,11.85 21.007,11.78 21.07,11.842 20.98,11.732 a 5.14,5.14 0 0 1 -0.069,-0.098 l -0.45,-0.657 C 19.877,10.149 19.137,9.295 18.361,8.662 L 15.03,6.173 c -0.077,0.056 -0.195,-0.128 0.04,0.42 0.057,0.132 0.108,0.284 0.162,0.446 0.82,2.47 0.297,2.74 -0.203,4.948 -0.154,0.678 -0.212,1.365 -0.348,2.032 -0.207,-0.028 -0.396,-0.1 -0.534,-0.247 z M 36.27,41.376 c -0.14,0.224 -0.533,0.45 -0.848,0.552 -0.124,0.124 -0.67,0.303 -0.91,0.345 l -0.305,0.055 c -0.562,0.14 -1.273,0.07 -1.818,-0.07 -0.392,-0.103 -1.21,-0.443 -1.425,-0.67 -0.147,-0.153 -0.185,-0.842 -0.53,-1.513 -0.262,-0.512 -0.53,-0.832 -0.84,-1.234 0.617,-0.23 1.288,-0.178 2.29,-1.105 0.295,-0.273 0.53,-0.54 0.78,-0.93 0.277,-0.43 0.327,-0.74 0.534,-1.117 l 0.144,-0.723 0.003,-0.21 V 33.62 c 0.394,0.02 0.518,0.332 1.126,0.706 a 5.11,5.11 0 0 0 1.171,0.543 c 0.87,0.282 1.048,0.057 1.33,0.434 0.853,1.135 1.16,2.62 0.715,4.045 -0.24,0.77 -0.882,1.792 -1.418,2.028 z m -0.156,-16.48 c 0.066,0.074 0.01,0.07 0.245,0.112 0.01,0.002 0.196,0.007 0.222,0.008 0.797,0.027 1.662,0.4 2.272,0.848 1.553,1.14 2.152,3.313 1.367,5.143 -0.307,0.716 -1.07,1.714 -1.707,1.934 -0.112,0.165 -0.66,0.39 -0.938,0.445 l -0.165,0.046 -0.33,0.08 c -0.957,0.366 -2.523,-0.183 -3.195,-0.635 -0.623,-0.42 -1.542,-1.342 -1.7,-2.314 -0.072,0.076 -0.048,-0.05 -0.066,0.162 l 0.086,0.542 c -0.177,-0.153 -0.398,-0.266 -0.526,-0.513 -0.1,-0.03 -0.08,-0.016 -0.204,-0.097 -0.145,-0.095 -0.086,-0.03 -0.18,-0.174 -0.15,-0.03 -0.658,-0.25 -0.815,-0.412 0.1,-0.14 0.225,-0.193 0.36,-0.283 l 0.94,-0.7 c -0.603,0.308 -1.05,1.036 -1.75,0.874 -0.53,-0.123 -1.876,-0.268 -2.25,-0.002 0.157,0.056 0.79,0.07 1.047,0.125 0.47,0.1 0.553,0.103 0.872,0.3 1.055,0.487 2.014,1.624 2.118,3.11 0.056,0.798 -0.126,1.484 -0.466,2.1 -0.232,0.427 -0.83,1.182 -1.265,1.31 -0.1,0.154 -0.535,0.346 -0.8,0.41 l -0.543,0.146 -0.367,0.063 c -1.102,0.03 -1.838,-0.216 -2.532,-0.7 -0.416,-0.3 -1.24,-1.16 -1.32,-1.81 -0.058,0.05 -0.164,-0.02 -0.048,0.416 0.354,1.33 0.955,1.745 1.1,2.067 l -0.485,0.082 -0.01,-0.03 c 0.295,0.243 0.358,-0.146 1,0.356 1.48,1.158 1.81,0.402 2.513,1.46 0.358,0.54 0.64,1.204 0.683,1.958 0.038,0.683 -0.1,1.853 -0.545,2.2 0,0.39 -1.04,1.36 -1.466,1.5 -0.115,0.125 -0.392,0.24 -0.63,0.302 l -0.678,0.193 -0.2,0.018 c -1.1,0.1 -2.015,-0.203 -2.708,-0.69 -0.463,-0.326 -1.368,-1.233 -1.464,-2.002 -0.037,0.024 -0.12,10e-4 -0.067,0.33 l 0.283,0.878 c 0.964,2.3 3.66,3.52 6.073,2.588 0.432,-0.167 0.713,-0.392 1.077,-0.553 0.297,-0.155 0.674,-0.562 0.872,-0.807 0.288,-0.357 0.422,-0.637 0.653,-1.02 l 0.294,-0.806 0.152,-0.84 c 0.31,0.185 0.456,0.4 1.122,0.75 0.433,0.22 0.91,0.4 1.444,0.488 0.565,0.103 1.247,0.114 1.813,0.014 0.844,-0.148 1.052,-0.348 1.52,-0.465 0.497,-0.255 1.033,-0.63 1.43,-1.06 l 0.404,-0.44 0.24,-0.358 0.137,-0.278 0.166,-0.302 0.07,-0.137 0.276,-0.838 a 1.09,1.09 0 0 1 0.464,0.414 l -0.55,0.124 c 0.902,0.08 0.603,-0.052 1.3,0.3 0.393,0.204 0.73,0.32 1.214,0.444 1.004,0.256 2.298,2.495 1.554,4.566 -0.252,0.703 -0.923,1.695 -1.473,1.877 -0.142,0.192 -0.497,0.362 -0.79,0.44 l -0.33,0.118 -0.763,0.168 c -1.07,0.064 -1.987,-0.227 -2.67,-0.715 -0.473,-0.337 -1.334,-1.205 -1.454,-2.003 -0.04,0.024 -0.092,-0.045 -0.065,0.268 l 0.22,0.772 c 0.762,2.075 2.94,3.37 5.17,3.032 0.423,-0.064 0.702,-0.2 1.127,-0.294 l 0.208,-0.04 c 0.126,-0.156 0.347,-0.235 0.513,-0.34 0.152,-0.096 0.298,-0.247 0.486,-0.32 0.108,-0.21 0.5,-0.535 0.707,-0.787 0.2,0.13 0.344,0.39 0.522,0.56 0.56,0.533 1.382,0.992 2.186,1.114 1.04,0.158 1.935,-0.043 2.784,-0.506 0.297,-0.162 0.448,-0.34 0.713,-0.484 0.234,-0.288 0.438,-0.444 0.683,-0.827 0.2,-0.33 0.352,-0.81 0.504,-1.057 0.144,-0.928 0.272,-1.39 0,-2.352 -0.194,-0.686 -0.56,-1.29 -0.96,-1.687 -0.938,-0.937 -2.068,-1.534 -3.948,-1.213 -0.002,0.016 1.067,0.168 1.242,0.227 3.206,1.062 3.013,5.405 0.353,6.43 l -0.435,0.148 -0.442,0.108 a 2.86,2.86 0 0 1 -0.607,0.056 L 46.52,48.475 c -0.14,-0.046 -0.066,-0.02 -0.126,-0.06 -0.5,0.056 -1.4,-0.55 -1.646,-0.8 0.043,-0.23 0.34,-0.735 0.45,-1.093 0.653,-2.18 -0.376,-3.496 -0.427,-3.874 -0.076,-0.057 -0.04,-0.006 -0.098,-0.09 -0.07,-0.1 -0.042,-0.063 -0.09,-0.186 l -0.918,-0.994 c 0.205,-0.077 0.494,-0.068 1.097,-0.304 a 4.42,4.42 0 0 0 0.978,-0.521 c 0.56,-0.402 1.037,-0.93 1.368,-1.544 0.08,-0.18 0.3,-0.73 0.415,-0.882 0.136,-0.928 0.278,-1.134 0.166,-2.226 -0.272,-0.992 -0.188,-0.98 -0.732,-1.867 -0.1,-0.162 -0.067,-0.076 -0.1,-0.213 -0.096,-0.064 -0.028,-0.005 -0.137,-0.1 -0.437,-0.422 -0.677,-0.926 -1.755,-1.393 -0.91,-0.393 -1.66,-0.482 -2.79,-0.37 l -0.162,0.103 c 1.77,0.124 2.73,0.737 3.46,1.855 0.73,1.118 0.83,2.826 0.168,3.963 a 2.03,2.03 0 0 1 -0.069,0.103 c -0.06,0.077 -0.023,0.036 -0.092,0.09 -0.04,0.24 -0.27,0.458 -0.437,0.642 -0.184,0.204 -0.35,0.406 -0.64,0.525 -0.087,0.2 -0.75,0.482 -1.07,0.567 l -0.42,0.104 -0.276,0.05 C 41.604,40.168 40.315,39.71 39.71,39.177 39.652,38.773 39.708,38.33 39.637,37.869 A 5.239,5.239 0 0 0 39.361,36.82 c -0.387,-1.018 -0.66,-1.112 -0.99,-1.673 0.137,-0.126 0.243,-0.143 0.428,-0.208 0.63,-0.225 1.35,-0.676 1.848,-1.12 0.16,-0.142 0.404,-0.5 0.556,-0.55 l 0.16,-0.22 0.26,-0.447 0.057,-0.126 0.116,-0.197 c 0.047,-0.125 0.04,-0.09 0.094,-0.202 l 0.057,-0.115 c 0.004,-0.008 0.016,-0.018 0.02,-0.037 0.004,-0.019 0.01,-0.026 0.018,-0.038 0.223,-0.9 0.43,-1.323 0.33,-2.426 -0.07,-0.76 -0.33,-1.494 -0.656,-2.055 -1.145,-1.97 -2.75,-2.21 -2.995,-2.4 -0.436,-0.076 -0.795,-0.174 -1.266,-0.193 -0.487,-0.02 -0.896,0.085 -1.297,0.085 z m 5.583,-10.55 c 0.013,0.233 0.85,1.277 0.978,1.5 -0.092,-0.15 -0.625,-0.478 -0.873,-0.61 -0.404,-0.216 -0.685,-0.274 -1.084,-0.436 -0.667,-0.197 -1.43,-0.248 -2.15,-0.138 a 4.49,4.49 0 0 0 -0.92,0.242 c -0.173,0.067 -0.675,0.357 -0.79,0.37 -0.225,0.404 -3.017,2.05 -0.576,6.316 l 0.106,0.182 c 0.2,0.23 0.077,0.13 0.134,0.014 -0.356,-0.43 -0.54,-1.918 -0.48,-2.646 0.013,-0.155 0.025,-0.277 0.122,-0.394 -0.033,-0.39 0.34,-1.034 0.556,-1.348 0.12,-0.174 0.162,-0.258 0.302,-0.33 0.066,-0.148 0.052,-0.13 0.17,-0.25 0.113,-0.114 0.094,-0.103 0.213,-0.138 0.108,-0.18 -0.004,-0.096 0.188,-0.158 0.084,-0.138 0.008,-0.08 0.155,-0.115 0.118,-0.15 0.284,-0.212 0.47,-0.27 1.397,-0.44 2.795,0.5 3.447,1.667 0.836,1.496 0.067,4.03 -1.098,4.204 -0.054,0.028 -0.204,0.044 -0.33,0.037 -0.038,-0.002 -0.157,-0.02 -0.187,-0.03 -0.186,-0.063 -0.05,0.003 -0.15,-0.083 -0.206,0.04 -0.086,0.03 -0.134,-0.05 -0.112,0 -0.086,0.02 -0.202,-0.037 -0.175,-0.083 -0.096,-0.052 -0.163,-0.138 -0.148,-0.03 -0.208,-0.086 -0.362,-0.222 -0.504,-0.445 -1.59,-2.036 -1.718,-2.52 -0.01,0.012 -0.022,0.017 -0.026,0.04 -0.01,0.065 -0.1,0.012 -0.062,0.466 0.07,1.087 0.495,2.168 1.154,2.996 1.133,1.424 2.6,0.798 3.583,0.578 0.172,-0.146 0.557,-0.308 0.84,-0.548 0.394,-0.334 0.52,-0.592 0.742,-0.77 0.06,-0.223 0.26,-0.51 0.37,-0.814 0.576,-1.604 -0.012,-2.764 -0.024,-3.282 -0.132,-0.124 -0.225,-0.394 -0.284,-0.585 -0.008,-0.007 -0.018,-0.01 -0.067,-0.076 a 3.85,3.85 0 0 1 -0.063,-0.095 c -0.09,-0.16 -0.06,-0.075 -0.083,-0.23 A 0.59,0.59 0 0 1 43.107,16.24 c 1.226,-0.052 1.957,0.27 2.512,0.93 0.26,0.307 0.45,0.68 0.6,1.114 0.114,0.357 0.158,1.164 -0.15,1.49 0.006,0.642 -1.788,2.247 -2.388,2.465 -0.005,0.198 0.067,0.138 0.3,0.144 0.084,0.002 0.3,-0.026 0.4,-0.042 0.638,-0.105 1.266,-0.496 1.713,-0.663 0.06,-0.106 0.327,-0.314 0.436,-0.443 0.08,-0.095 0.32,-0.44 0.4,-0.492 l 0.303,-0.6 0.23,-0.635 0.056,-0.255 0.044,-0.276 c 0.078,-0.896 0.034,-1.31 -0.223,-2.094 -0.2,-0.88 -1.16,-2.01 -1.992,-2.513 -1.088,-0.658 -2.954,-0.545 -3.63,-0.018 z m -11.213,-2.153 0.067,0.07 0.02,0.03 0.184,0.307 c 2.97,4.713 3.354,9.8 -0.36,14.32 l -1.244,1.4 c -0.06,0.086 -0.02,0.013 -0.05,0.09 0.077,0.34 0.196,0.208 0.292,0.18 0.062,0.42 -0.157,0.246 -0.327,0.18 -0.23,-0.09 -0.447,0.334 -0.093,0.378 0.135,0.017 0.208,-0.026 0.267,-0.128 -0.125,0.09 -0.073,0.014 -0.068,0.22 0.31,0.12 -0.06,0.07 0.32,0.088 0.38,0.018 0.197,0.02 0.35,0.092 0.613,0.295 -0.052,-0.193 0.61,-0.145 0.658,0.048 -0.1,0.343 0.452,0.176 l 0.114,-0.15 c 0.006,-0.012 0.03,-0.052 0.035,-0.068 l 0.035,-0.3 c 0.13,0.318 -0.033,0.097 0.245,0.2 0.042,-0.106 0.038,-0.036 0.058,-0.23 0.9,-0.125 0.173,-0.14 0.59,-0.274 0.014,-0.004 0.19,-0.027 0.27,-0.023 0.276,-0.12 0.842,-0.887 1.076,-1.223 0.167,-0.24 0.304,-0.443 0.45,-0.7 0.08,-0.15 0.26,-0.574 0.37,-0.678 l 0.104,-0.243 c 0.024,-0.147 -0.013,-0.033 0.036,-0.168 0.03,-0.084 0.05,-0.078 0.078,-0.115 0.037,-0.278 0.26,-0.827 0.345,-1.177 0.105,-0.427 0.16,-0.826 0.232,-1.286 l 0.07,-0.765 0.003,-1.27 c -0.028,-0.645 -0.108,-1.234 -0.24,-1.848 -0.12,-0.555 -0.35,-1.103 -0.458,-1.615 l -0.176,-0.456 -0.168,-0.387 c -0.075,-0.075 -0.357,-0.67 -0.44,-0.822 -0.138,-0.252 -0.337,-0.58 -0.497,-0.827 a 11.92,11.92 0 0 0 -0.548,-0.777 c -0.1,-0.128 -0.543,-0.635 -0.578,-0.776 l -1.435,-1.357 z"></g>
                    <text style="font-weight:200;font-size:24px;font-family:Jaldi;fill:white;fill-opacity:1;"x="51" y="30">VIDEIRA</text>
                    <text style="font-weight:700;font-size:24px;font-family:Jaldi;fill:white;fill-opacity:1;"x="126" y="30">PALMAS</text>
                </svg>