<?xml version="1.0" encoding="UTF-8" standalone="no"?>
<svg
   xmlns:dc="http://purl.org/dc/elements/1.1/"
   xmlns:cc="http://creativecommons.org/ns#"
   xmlns:rdf="http://www.w3.org/1999/02/22-rdf-syntax-ns#"
   xmlns:svg="http://www.w3.org/2000/svg"
   xmlns="http://www.w3.org/2000/svg"
   viewBox="0 0 595.27557 841.88977"
   id="svg9"
   height="841.88977"
   width="595.27557"
   version="1.1">
  <metadata
     id="metadata15">
    <rdf:RDF>
      <cc:Work
         rdf:about="">
        <dc:format>image/svg+xml</dc:format>
        <dc:type
           rdf:resource="http://purl.org/dc/dcmitype/StillImage" />
      </cc:Work>
    </rdf:RDF>
  </metadata>
  <defs
     id="defs13" />
  <g
     id="Layer1000">
    <path
       id="path2"
       style="fill:#009035;fill-rule:evenodd"
       d="m 143.3701,425.8534 c 0,0 -6.3443,-8.7842 -9.8572,-20.6405 -3.5126,-11.8566 -1.4893,-21.4894 -1.4893,-21.4894 0,0 -5.996,14.5351 -2.3822,24.7194 4.1956,11.823 13.7287,17.4105 13.7287,17.4105 v 0 z m 79.0286,-39.8079 -0.9774,5.4703 v 0 c 0,0 4.8419,2.2108 5.7574,6.9243 0.9153,4.7135 -3.5231,6.8399 -3.5231,6.8399 0,0 6.1947,0.0649 6.8637,-6.7074 0.8962,-9.0718 -8.1206,-12.5271 -8.1206,-12.5271 v 0 z m -20.025,-7.1498 c 0,0 8.6244,-4.5604 14.8639,3.0463 7.3138,8.9173 2.0687,18.568 -2.6757,20.6643 -4.7445,2.096 -6.4449,1.3363 -6.4449,1.3363 0,0 10.5702,-5.7708 8.4006,-12.714 -2.2184,-7.0997 -8.6797,-6.5309 -9.7925,-6.3776 1.8244,2.1743 3.084,5.0543 3.3616,8.7019 0.9632,12.652 -13.2165,16.6637 -17.8327,11.0357 -4.6165,-5.628 -3.8144,-11.7502 -3.8144,-11.7502 0,0 3.646,7.4971 6.8664,9.2469 5.3235,2.8933 7.6503,-2.3115 8.1516,-7.7634 0.5793,-6.2987 -8.3951,-14.1755 -14.7442,-8.2495 -8.0139,7.4796 -1.7536,17.7534 -1.7536,17.7534 v 0 0 c 0,0 -10.2117,-13.3255 -0.029,-21.6775 4.5792,-3.7563 13.6673,-3.5254 19.0124,1.8462 l -3.5695,-5.0988 z m -54.092,53.8181 c 0,0 28.7103,-0.5309 32.7219,-26.2007 3.4644,-22.1714 -13.8946,-35.4351 -13.8946,-35.4351 0,0 12.9882,17.4765 6.5263,34.9439 -6.4757,17.5055 -25.3536,26.6919 -25.3536,26.6919 v 0 z m 11.4494,-28.0666 c 0,0 7.2607,-12.9298 -0.6487,-25.1191 -7.9094,-12.1892 -15.9768,-10.1827 -15.9768,-10.1827 v 0 l -1.7403,7.0182 v 0 c 0,0 -5.3534,-11.5224 -12.6883,-16.9432 -7.3348,-5.421 -9.932,-7.5437 -9.932,-7.5437 0,0 3.8465,8.0846 2.0059,13.0548 -1.8404,4.9699 -2.7229,12.131 -2.7229,12.131 0,0 -2.98,-1.5567 -8.9003,-3.8388 -5.92,-2.2822 -14.5704,-3.8061 -14.5704,-3.8061 0,0 -0.3737,13.189 1.9563,20.449 2.3303,7.26 6.3433,13.1464 6.3433,13.1464 0,0 -4.2802,-0.749 -9.4499,-1.0738 -5.1697,-0.3251 -7.6011,0.3411 -7.6011,0.3411 0,0 -1.8955,23.6997 15.2265,34.6858 19.9982,12.8311 35.6761,2.2578 35.6761,2.2578 0,0 -20.0645,1.6639 -31.804,-10.4755 C 93.1651,416.609 92.316,408.241 92.316,408.241 c 0,0 7.1596,0.6088 11.3229,1.7744 4.1633,1.1658 8.6925,3.6052 8.6925,3.6052 0,0 -0.5917,-4.9288 -1.8233,-7.1182 -1.2318,-2.1897 -3.9374,-3.1228 -3.9374,-3.1228 0,0 -5.9354,-8.8159 -7.3347,-15.0444 -1.3989,-6.2284 0.2248,-12.8305 0.2248,-12.8305 0,0 8.3009,2.7731 13.9959,6.661 5.6947,3.888 8.0594,7.4684 8.0594,7.4684 0,0 0.2155,-9.2411 1.998,-14.1786 1.7828,-4.9375 3.2899,-11.1231 3.2899,-11.1231 0,0 4.7869,0.8912 8.8329,7.4606 4.0464,6.5693 4.7708,13.6043 4.7708,13.6043 v 0 l 4.9366,1.1574 2.374,-10.2571 v 0 c 0,0 6.8599,4.712 10.1067,11.7312 3.2468,7.0189 1.9061,16.6184 1.9061,16.6184 v 0 z" />
    <path
       id="path4"
       style="fill:#a4027c;fill-rule:evenodd"
       d="m 201.6733,436.0409 c 0.336,-0.5452 0.6337,-1.1025 0.8976,-1.6693 2.4179,-0.1191 4.8968,0.4658 7.1138,1.8319 5.838,3.5972 7.6541,11.246 4.0569,17.0837 -3.5972,5.8378 -11.246,7.6545 -17.0837,4.057 -0.4343,-0.2676 -0.8458,-0.5584 -1.235,-0.8683 0.4906,-4.7366 -1.095,-9.5389 -4.4362,-13.0569 4.2825,-0.8249 8.2181,-3.3725 10.6866,-7.3781 v 0 z m 30.026,47.7074 c 3.7542,-6.0923 1.8586,-14.074 -4.2337,-17.8282 -3.307,-2.0377 -7.1706,-2.4109 -10.6126,-1.3517 2.4063,-0.3383 4.9407,0.1289 7.171,1.5034 5.0845,3.1325 6.6664,9.7939 3.5333,14.8778 -3.1325,5.0842 -9.7936,6.6661 -14.8778,3.5333 -0.6792,-0.4183 -1.2958,-0.9002 -1.8471,-1.4323 0.0234,-0.0377 0.048,-0.0744 0.0713,-0.1124 v 0 0 c 3.9975,-6.4871 2.4149,-14.84 -3.4148,-19.4574 4.388,-0.495 8.5126,-2.9288 11.0088,-6.9797 v 0 0 c 4.3108,-6.9956 2.1342,-16.161 -4.8617,-20.4718 -3.4109,-2.1018 -7.3388,-2.6598 -10.9673,-1.8704 3.2612,-7.2761 0.705,-16.0203 -6.2672,-20.3162 -4.1174,-2.5372 -8.9283,-3.002 -13.2139,-1.6832 2.9963,-0.421 6.1517,0.1605 8.9291,1.8718 6.3304,3.9008 8.3001,12.1945 4.3993,18.5249 -2.8665,4.6516 -8.1044,6.9476 -13.1927,6.291 -0.6445,-0.1744 -1.2954,-0.3074 -1.9485,-0.401 -1.1636,-0.331 -2.3028,-0.8251 -3.3835,-1.491 -3.3869,-2.0872 -5.5257,-5.4315 -6.1849,-9.0604 0.0262,1.2661 0.2021,2.5235 0.5193,3.7436 -0.9026,-1.0227 -1.9702,-1.9322 -3.1918,-2.685 -3.6132,-2.2264 -7.8345,-2.6342 -11.5957,-1.4771 2.6297,-0.3694 5.3984,0.1408 7.8359,1.6424 5.5546,3.4231 7.2832,10.7011 3.8601,16.2561 -3.4228,5.555 -10.7009,7.2832 -16.2558,3.8604 -2.9721,-1.8315 -4.8488,-4.7663 -5.427,-7.9506 0.0715,3.4823 1.4262,6.8838 3.8891,9.4732 -0.9431,0.103 -1.875,0.2956 -2.7806,0.5742 1.1012,-0.1547 2.2264,-0.1632 3.3426,-0.0171 0.6858,0.6444 1.4456,1.2306 2.2781,1.7436 1.5758,0.9712 3.2683,1.5947 4.9871,1.8943 3.8911,3.9801 4.7356,10.2363 1.6838,15.189 -3.5972,5.838 -11.246,7.6544 -17.084,4.0572 -3.1233,-1.9249 -5.0957,-5.0091 -5.7035,-8.3555 0.1007,4.8848 2.603,9.6197 7.0721,12.3738 6.9956,4.3104 16.161,2.1339 20.4711,-4.8617 v 0 0 c 1.249,-2.0271 1.9533,-4.2371 2.1536,-6.4576 0.7626,0.7003 1.6017,1.3391 2.5159,1.9025 7.7506,4.7759 17.9053,2.3645 22.6814,-5.3865 v 0 0 c 0.5102,-0.8283 0.9397,-1.685 1.2883,-2.5591 0.9932,-0.0996 2.0019,-0.081 3.0022,0.0629 0.2206,0.1533 0.4462,0.302 0.6776,0.4446 1.6007,0.9861 3.3143,1.6316 5.0576,1.9582 5.0398,3.8164 6.448,10.9117 3.0639,16.4041 -3.5972,5.8377 -11.246,7.6541 -17.0838,4.0569 -3.1235,-1.9249 -5.0959,-5.0091 -5.7038,-8.3555 0.1008,4.8848 2.6033,9.6197 7.0722,12.3734 6.5278,4.0227 14.9442,2.395 19.543,-3.5248 0.9933,1.4521 2.3011,2.7249 3.8957,3.7076 6.0923,3.7539 14.0744,1.8586 17.8283,-4.234 v 0 z m -35.1208,-23.4015 c -0.7417,0.0838 -1.4754,0.223 -2.1953,0.4159 0.2418,-0.6172 0.443,-1.2425 0.6063,-1.8741 0.4881,0.5186 1.0185,1.0056 1.589,1.4582 z m -28.7853,3.2727 c -0.4197,-3.1926 -1.8678,-6.2298 -4.2196,-8.5818 4.0674,-0.5427 7.8654,-2.8386 10.1862,-6.6048 v 0 0 c 1.8299,-2.9699 2.4317,-6.3511 1.9451,-9.5491 0.2404,-0.007 0.4811,-0.007 0.722,-8e-4 0.8948,0.9107 1.9123,1.7294 3.0482,2.4293 2.203,1.3574 4.6056,2.1198 7.0189,2.3345 3.8165,4.4199 4.5207,10.9709 1.2945,16.207 -3.9856,6.4679 -12.4599,8.4804 -18.9282,4.4947 -0.3708,-0.2283 -0.7259,-0.4723 -1.0671,-0.729 z m 7.8702,-24.9912 c -0.0434,-0.254 -0.0938,-0.5057 -0.1509,-0.7568 0.1898,0.2288 0.3867,0.4521 0.5904,0.6715 -0.1468,0.0265 -0.2933,0.0548 -0.4395,0.0853 z" />
    <path
       id="path6"
       style="fill:#1b1918;fill-rule:evenodd"
       d="m 271.7845,448.7788 -2.1037,-5.7745 16.5081,-51.4793 v 0 c 1.1722,-3.6635 3.926,-5.4243 7.8945,-6.2283 v 0 l 0.0337,-3.0166 -18.4759,-0.2065 -0.0337,3.0166 v 0 c 3.9498,0.8925 6.5732,2.336 6.5406,5.2584 -0.0179,1.6023 -0.8915,3.8553 -2.0658,7.7075 v 0 l -12.3127,38.799 -0.1884,-0.002 -14.7944,-51.2637 5.193,-0.6961 0.0337,-3.0166 -21.9637,-0.2454 -0.0337,3.0165 5.1762,0.8121 18.3379,63.182 12.2543,0.137 z M 499.0608,391.421 c 4.9969,0.0559 9.0272,4.1773 8.9713,9.1741 -0.0558,4.9966 -4.1772,9.0268 -9.174,8.971 -4.9966,-0.0559 -9.0269,-4.1772 -8.971,-9.1738 0.0558,-4.9968 4.1772,-9.0271 9.1737,-8.9713 z m 0.0168,-1.4992 c 5.8228,0.0651 10.5189,4.8673 10.4538,10.6901 -0.0651,5.8224 -4.8673,10.5185 -10.6901,10.4534 -5.8225,-0.065 -10.5186,-4.8673 -10.4535,-10.6897 0.0651,-5.8228 4.8673,-10.5189 10.6898,-10.4538 z m -2.6669,5.9732 4.0077,0.0448 c 0.795,0.009 2.1345,0.1725 2.114,2.0102 -0.0196,1.7556 -1.2648,2.0398 -2.4408,2.0267 l -3.726,-0.0417 z m -0.0605,5.4145 3.8911,0.0435 c 1.9213,0.0215 2.1076,1.1661 2.0967,2.1434 -0.005,0.4468 0.0243,2.2524 0.2483,2.9837 l 1.9702,0.022 0.003,-0.2648 c -0.4937,-0.2869 -0.5738,-0.5364 -0.5826,-1.1989 l -0.0753,-2.1539 c -0.0479,-1.6569 -0.7234,-1.9626 -1.3991,-2.2515 0.7667,-0.4388 1.6677,-1.0741 1.6874,-2.8296 0.0281,-2.5172 -1.9183,-3.2182 -3.8726,-3.24 l -5.4974,-0.0615 -0.1329,11.8899 1.6063,0.018 z m -237.0658,78.1301 -2.9217,-0.0327 0.1158,-15.456 2.9218,0.0327 z m 14.4083,-1.254 c -0.3064,0.5996 -0.686,1.0406 -1.1314,1.3238 -0.4496,0.2821 -0.9891,0.4207 -1.6258,0.4136 -1.1439,-0.0128 -2.1476,-0.3974 -3.0144,-1.1539 -0.866,-0.7538 -1.4223,-1.7392 -1.6665,-2.9552 -0.0878,-0.4355 -0.1584,-0.9054 -0.2104,-1.4174 -0.0506,-0.507 -0.0937,-1.1451 -0.1265,-1.9057 -0.0443,-1.1725 -0.0435,-2.2037 0.003,-3.0937 0.0436,-0.8898 0.1302,-1.6329 0.255,-2.2337 0.2602,-1.2035 0.7012,-2.0754 1.3164,-2.6163 0.6189,-0.5417 1.4855,-0.8057 2.5952,-0.7933 1.5519,0.0173 2.7513,0.3763 3.5995,1.0751 0.8479,0.6979 1.4255,1.8035 1.73,3.3177 0.0339,0.1689 0.061,0.3368 0.0817,0.5113 0.0219,0.1755 0.0411,0.3711 0.0602,0.5839 l -2.7737,-0.0417 c -0.0282,-0.2407 -0.0545,-0.4563 -0.0827,-0.6481 -0.0272,-0.189 -0.0569,-0.3502 -0.0824,-0.4777 -0.1559,-0.7754 -0.3883,-1.3227 -0.6994,-1.6452 -0.3141,-0.3221 -0.7643,-0.4844 -1.353,-0.491 -0.5342,-0.006 -0.9249,0.1784 -1.1634,0.5559 -0.243,0.3734 -0.3967,1.0678 -0.4608,2.0744 -0.1052,1.639 -0.147,3.112 -0.1332,4.4211 0.0165,1.3088 0.0848,2.2613 0.205,2.8593 0.1292,0.6418 0.367,1.1271 0.7104,1.4563 0.3431,0.3295 0.7899,0.4954 1.3443,0.5016 0.744,0.008 1.2682,-0.3247 1.5705,-0.9966 0.3021,-0.6743 0.3807,-1.6943 0.2382,-3.0629 l -1.7671,-0.0197 0.0181,-2.3571 4.6651,0.0521 -0.0116,8.2015 -1.9968,-0.0224 z m 11.692,-7.3376 1.4656,0.0164 c 1.0513,0.0117 1.7614,-0.1996 2.1351,-0.6367 0.3731,-0.4384 0.4575,-1.1537 0.2576,-2.1486 -0.1208,-0.6008 -0.368,-1.0323 -0.7415,-1.2934 -0.3699,-0.2577 -0.9333,-0.3903 -1.6895,-0.3987 l -1.4045,-0.0157 z m -0.0158,8.8831 -2.8603,-0.032 0.1155,-15.456 3.9462,0.0441 c 1.7989,0.0202 3.1317,0.3262 3.9921,0.9181 0.864,0.5926 1.4355,1.5822 1.7143,2.9688 0.2161,1.075 0.1092,1.9882 -0.3209,2.7379 -0.4307,0.7514 -1.1002,1.1929 -2.0072,1.3235 0.5606,0.1328 1.0046,0.3876 1.3356,0.7617 0.3291,0.3771 0.5597,0.8928 0.6916,1.5494 0.0255,0.1266 0.0446,0.2742 0.056,0.4352 0.0131,0.165 0.0264,0.4015 0.0339,0.7099 l 0.057,2.0178 c 0.002,0.1132 0.009,0.2301 0.0218,0.3471 0.0131,0.116 0.0395,0.2674 0.0775,0.4565 0.0394,0.195 0.099,0.388 0.1824,0.5844 0.0844,0.196 0.2105,0.4338 0.3801,0.7165 l -3.0997,-0.0347 c -0.0803,-0.1272 -0.152,-0.2794 -0.2094,-0.4476 -0.0623,-0.172 -0.1143,-0.3643 -0.1581,-0.581 -0.0385,-0.1919 -0.0701,-0.4011 -0.0939,-0.6206 -0.0242,-0.2233 -0.0436,-0.4535 -0.0513,-0.6967 l -0.0791,-1.837 c -0.008,-0.161 -0.0211,-0.3287 -0.0445,-0.5109 -0.0221,-0.1813 -0.0533,-0.3704 -0.0939,-0.5727 -0.1159,-0.5768 -0.3823,-0.9847 -0.7959,-1.2221 -0.4144,-0.241 -1.0782,-0.3643 -1.9858,-0.3745 -0.1617,-0.002 -0.2978,-6e-4 -0.4059,0.005 -0.1083,0.006 -0.2194,0.0149 -0.3296,0.0281 z m 13.4708,0.1505 0.1195,-15.4559 7.5352,0.0842 0.005,2.4705 -4.7443,-0.053 -0.0477,3.7535 4.6476,0.0519 -0.0117,2.3877 -4.6452,-0.0519 -0.0474,4.3541 5.0797,0.0568 0.009,2.4904 z m 17.7851,-15.2585 2.919,0.0327 -0.1005,12.2532 c -0.0121,1.2984 -0.2637,2.2232 -0.7549,2.773 -0.4875,0.55 -1.2982,0.8177 -2.4287,0.8051 -1.0923,-0.0123 -1.9689,-0.2719 -2.6314,-0.783 -0.6626,-0.5071 -1.0925,-1.2484 -1.2878,-2.2203 -0.0524,-0.2612 -0.0917,-0.5803 -0.1184,-0.9503 -0.0308,-0.3707 -0.0516,-0.8642 -0.0694,-1.481 l 2.4496,0.0274 c 0.0396,0.7234 0.071,1.255 0.0941,1.5944 0.0253,0.3428 0.0502,0.5721 0.0751,0.696 0.0574,0.2847 0.1711,0.5093 0.3397,0.668 0.1688,0.16 0.3771,0.2409 0.623,0.2437 0.2883,0.003 0.4903,-0.0933 0.6036,-0.2951 0.1141,-0.1969 0.1751,-0.6452 0.1823,-1.3402 z m 12.8559,9.4178 2.3808,0.0266 -1.2664,-7.4414 z m -1.1831,6.17 -2.9591,-0.0331 3.3975,-15.4193 3.682,0.0411 3.4674,15.4961 -2.8191,-0.0315 -0.7993,-3.9758 -3.2022,-0.0358 z m 21.9881,0.2457 0.1196,-15.4559 7.5351,0.0842 0.005,2.4705 -4.7445,-0.053 -0.0478,3.7534 4.6476,0.052 -0.0117,2.3877 -4.6451,-0.0519 -0.0475,4.3541 5.0797,0.0568 0.009,2.4904 z m 17.077,0.1909 -2.761,-0.0309 0.0957,-15.4562 4.3779,0.0489 1.4122,6.7412 c 0.1617,0.8031 0.2961,1.4728 0.4011,2.0082 0.103,0.5318 0.2011,1.0537 0.2967,1.5621 0.1427,-1.0574 0.244,-1.779 0.3053,-2.1691 0.0618,-0.3899 0.1219,-0.7042 0.1841,-0.9362 l 1.6339,-7.1589 4.2954,0.048 -0.1155,15.456 -2.7919,-0.0312 0.4113,-11.2971 c 0.0171,-0.3561 0.0385,-0.7638 0.0657,-1.222 0.0265,-0.4621 0.066,-0.9828 0.1177,-1.5574 l -0.182,-0.002 c -0.1279,0.7216 -0.2345,1.3131 -0.324,1.7705 -0.0892,0.4547 -0.1632,0.8034 -0.2206,1.0459 l -2.6183,11.2315 -1.795,-0.0201 -2.2741,-11.1078 c -0.0669,-0.3332 -0.1714,-0.8341 -0.3129,-1.5039 -0.1406,-0.6661 -0.2453,-1.1679 -0.3128,-1.5039 l -0.178,-0.002 c 0.0436,0.4216 0.0778,0.8951 0.104,1.4162 0.0263,0.5242 0.0389,1.1476 0.046,1.8771 z m 33.0399,-4.646 2.6958,0.0301 c 0.0938,1.7926 -0.1907,3.1326 -0.8569,4.0194 -0.6652,0.8859 -1.7127,1.3204 -3.1382,1.3044 -1.4868,-0.0166 -2.669,-0.3763 -3.5545,-1.0746 -0.8852,-0.6983 -1.4672,-1.74 -1.7445,-3.12 -0.0718,-0.3567 -0.1294,-0.7614 -0.1732,-1.2178 -0.0472,-0.4532 -0.0751,-0.967 -0.0902,-1.5357 -0.0419,-1.3638 -0.0443,-2.5492 -0.007,-3.5495 0.0347,-0.9999 0.1105,-1.7633 0.2235,-2.2896 0.2594,-1.2091 0.6954,-2.0813 1.3122,-2.6191 0.6158,-0.5381 1.476,-0.8022 2.5789,-0.7899 1.5785,0.0177 2.7864,0.3807 3.6232,1.0889 0.8356,0.7072 1.4142,1.8514 1.7312,3.4277 0.0376,0.1882 0.0829,0.5181 0.1378,0.9946 0.0133,0.0998 0.027,0.1823 0.0322,0.2407 l -2.7717,-0.0309 c -0.038,-0.2889 -0.0719,-0.5428 -0.1067,-0.7692 -0.0342,-0.2224 -0.0708,-0.4182 -0.1047,-0.5871 -0.1608,-0.7994 -0.3958,-1.361 -0.7069,-1.6826 -0.3151,-0.3261 -0.7658,-0.492 -1.3545,-0.4986 -0.5342,-0.006 -0.9244,0.1823 -1.1625,0.5595 -0.2422,0.3774 -0.3956,1.0748 -0.4574,2.0919 -0.0937,1.6256 -0.1252,3.1361 -0.1002,4.5343 0.0287,1.401 0.0863,2.32 0.1756,2.7632 0.128,0.6382 0.3671,1.11 0.7138,1.4221 0.3463,0.3122 0.8091,0.4715 1.3913,0.478 0.6232,0.007 1.0704,-0.2483 1.3502,-0.7623 0.2758,-0.5141 0.3965,-1.3244 0.3629,-2.4279 z m 9.4866,5.1212 0.1196,-15.4559 7.5351,0.0842 0.005,2.4705 -4.7445,-0.053 -0.0478,3.7534 4.648,0.052 -0.0121,2.3877 -4.6448,-0.0519 -0.0478,4.3541 5.0797,0.0568 0.009,2.4904 z m 3.5148,-16.8743 -1.1027,-0.0123 1.295,-2.315 2.3185,0.0259 z m 10.8012,17.0343 0.1159,-15.4559 2.8126,0.0314 -0.0914,12.9075 5.2195,0.0583 -0.0581,2.5481 z m 22.6921,-4.4533 c -0.0104,1.1749 -0.0714,2.0069 -0.1792,2.4923 -0.1115,0.4813 -0.2914,0.8977 -0.5433,1.2405 -0.3254,0.4386 -0.7808,0.7726 -1.3653,0.9958 -0.5878,0.2221 -1.2802,0.3312 -2.0844,0.3222 -1.3911,-0.0155 -2.5688,-0.3675 -3.5318,-1.0572 -0.9627,-0.6924 -1.5587,-1.6001 -1.7849,-2.7256 -0.0525,-0.2611 -0.0882,-0.5909 -0.1107,-0.9912 -0.0175,-0.3977 -0.0236,-0.9501 -0.0132,-1.6623 l 0.13,-9.4708 2.8603,0.032 -0.1216,10.2559 c -0.005,0.3734 4e-4,0.7019 0.019,0.9798 0.0149,0.2776 0.0408,0.5106 0.0802,0.7064 0.1075,0.5355 0.3572,0.9594 0.7512,1.2721 0.3944,0.313 0.8814,0.4726 1.4633,0.4791 0.603,0.007 1.0215,-0.1736 1.2508,-0.5445 0.2337,-0.3668 0.3497,-1.168 0.3518,-2.3974 l 0.0894,-10.708 2.8298,0.0316 z m 6.875,4.7838 0.1158,-15.456 2.8126,0.0314 -0.091,12.9075 5.2192,0.0584 -0.0579,2.5481 z m 16.9723,-5.9935 2.3809,0.0266 -1.2665,-7.4414 z m -1.1828,6.1699 -2.9594,-0.033 3.3976,-15.4193 3.682,0.0411 3.4676,15.496 -2.8193,-0.0315 -0.7994,-3.9757 -3.2022,-0.0358 z m 12.8374,-5.4271 2.7236,0.0305 c 0.004,0.0548 0.0115,0.1236 0.0218,0.2128 0.0486,0.4458 0.0933,0.768 0.1327,0.9639 0.1842,0.9174 0.4458,1.5711 0.7802,1.9617 0.3349,0.3878 0.8015,0.5845 1.3938,0.5911 0.6168,0.007 1.0734,-0.1871 1.3674,-0.5774 0.2943,-0.3903 0.3777,-0.9102 0.2465,-1.5627 -0.1808,-0.9 -1.0482,-1.8788 -2.604,-2.9378 -0.051,-0.0352 -0.0874,-0.0594 -0.1035,-0.0731 -1.3329,-0.9195 -2.25,-1.69 -2.7528,-2.3189 -0.5058,-0.6289 -0.8382,-1.3461 -0.9995,-2.1492 -0.2831,-1.4078 -0.1006,-2.4914 0.5492,-3.2549 0.6459,-0.7637 1.7097,-1.1356 3.1888,-1.1191 1.4112,0.0158 2.5593,0.3674 3.4383,1.0522 0.8826,0.6851 1.4526,1.668 1.7108,2.952 0.0298,0.1477 0.0612,0.3224 0.0923,0.5246 0.0307,0.2062 0.0614,0.4432 0.0951,0.7106 l -2.7411,-0.0307 c -0.0368,-0.2875 -0.0657,-0.5175 -0.0916,-0.6931 -0.0283,-0.1746 -0.0468,-0.3051 -0.0647,-0.3943 -0.1292,-0.6421 -0.3746,-1.1311 -0.7295,-1.4672 -0.3581,-0.3365 -0.8232,-0.5062 -1.3916,-0.5125 -0.5342,-0.006 -0.9357,0.154 -1.2049,0.4835 -0.2651,0.3291 -0.3466,0.7564 -0.2394,1.2888 0.0848,0.4223 0.2951,0.822 0.6306,1.1991 0.3352,0.3799 0.963,0.8839 1.8764,1.5174 0.1075,0.0731 0.2628,0.1809 0.4641,0.3174 2.1945,1.4809 3.4331,2.9327 3.7191,4.3549 0.3123,1.5544 0.109,2.772 -0.6142,3.6447 -0.723,0.8758 -1.8804,1.3041 -3.48,1.2863 -1.4255,-0.016 -2.5728,-0.3878 -3.4451,-1.1203 -0.8714,-0.7327 -1.4502,-1.8117 -1.7361,-3.2326 -0.058,-0.2891 -0.1066,-0.5633 -0.1425,-0.828 -0.0358,-0.2637 -0.064,-0.5377 -0.0902,-0.8197 z m 4.3991,-57.4237 c 0.1212,-10.8405 -14.0665,-15.1472 -21.0421,-15.2252 -3.582,-0.04 -8.0262,1.1361 -8.0704,5.0951 -0.0337,3.0166 1.647,4.4495 5.3234,4.4906 4.9963,0.0558 5.8209,-6.2515 7.5177,-6.2325 3.205,0.0358 6.9335,3.8486 6.8776,8.8445 v 0 l -0.0516,4.6192 v 0 c -10.0385,4.036 -22.8034,7.3813 -22.9414,19.7302 -0.0674,6.0331 4.4004,11.1738 10.4336,11.2412 5.3729,0.0601 8.9833,-2.445 12.6078,-6.1756 0.7182,3.2137 2.3803,6.3431 7.1878,6.3969 4.2419,0.0474 7.8628,-3.4001 8.9211,-5.274 v 0 l -1.5805,-1.9975 v 0 c -1.0453,0.7424 -2.1827,1.2955 -3.2197,1.2839 -1.9796,-0.0221 -2.2446,-1.6276 -2.2235,-3.5131 v 0 l 0.2602,-23.2837 z m -9.6856,23.0842 c -1.2435,1.5889 -4.0872,2.971 -6.7264,2.9415 -2.8283,-0.0316 -6.1808,-3.7457 -6.1376,-7.6106 0.079,-7.07 5.0282,-11.2571 13.0652,-13.3356 v 0 l -0.2012,18.0047 z m -57.9633,-35.1533 -0.0284,2.5453 v 0 c 5.2788,0.059 6.815,6.0156 6.755,11.3886 v 0 l -0.2845,25.4518 -5.1951,0.8848 -0.0285,2.545 20.3614,0.2276 0.0285,-2.5451 -5.1741,-1.0007 v 0 c -0.4386,-2.9276 -0.4993,-5.945 -0.4677,-8.7729 0.1885,-16.8735 3.852,-24.0923 5.8313,-24.0701 0.6599,0.007 3.005,1.0709 5.55,1.0994 3.5823,0.04 6.445,-3.0392 6.4724,-5.49 0.04,-3.5823 -2.0117,-5.5852 -6.2535,-5.6326 -6.6931,-0.0748 -10.0955,9.1265 -12.4159,14.2858 v 0 l -0.1884,-0.002 v 0 c -0.512,-4.8139 -1.5619,-12.085 -4.3638,-14.4733 v 0 l -10.5987,3.5585 z m -3.3973,42.7639 0.0285,-2.545 -5.1741,-1.0007 0.4804,-42.9853 -14.6609,4.2673 -0.0284,2.5453 v 0 c 3.3936,0.038 5.1751,0.9062 5.1308,4.8655 v 0 l -0.3487,31.2018 -5.1951,0.8848 -0.0285,2.5451 19.796,0.2212 z M 400.687,388.8448 c -0.0389,3.4881 2.5743,5.8743 5.7792,5.9101 3.2053,0.0358 5.8708,-2.2914 5.9098,-5.7795 0.0379,-3.3933 -2.5739,-5.8736 -5.7792,-5.9095 -3.2049,-0.0358 -5.8718,2.3856 -5.9098,5.7789 v 0 z m -7.8998,31.9661 c 0.007,-9.0505 -6.21,-17.9822 -16.2021,-18.0939 -12.9143,-0.1443 -19.1055,13.9281 -19.2372,25.7113 -0.1243,11.1236 6.0713,21.9401 17.1007,22.0633 8.6724,0.097 13.5316,-4.4682 18.2253,-11.1093 v 0 l -2.5232,-2.0081 v 0 c -3.0542,3.3599 -4.6885,6.1699 -10.4385,6.1056 -8.6727,-0.0969 -12.7277,-8.4386 -12.9259,-15.9828 v 0 l 26.0009,-6.6861 z m -26.8994,2.7163 c 0.1053,-9.4265 2.7421,-17.5992 9.2464,-17.5265 4.2419,0.0474 7.0414,2.6243 6.9887,7.3374 -0.0506,4.5247 -1.4877,6.5828 -5.2689,7.4834 v 0 l -10.9662,2.7057 z M 340.9117,404.487 c -1.7784,-1.1512 -4.5005,-2.2189 -7.8938,-2.2569 -13.3858,-0.1496 -18.3482,13.6537 -18.4926,26.5683 -0.1053,9.4264 4.6669,21.0757 14.659,21.1874 4.8076,0.0537 8.9985,-3.7645 11.9546,-6.7484 0.5359,2.6459 1.1663,5.2925 2.751,6.9127 v 0 l 10.5002,-3.1822 0.0285,-2.545 v 0 c -3.7664,-0.4192 -4.4931,-2.8785 -4.4447,-7.2148 v 0 l 0.6743,-60.3298 -14.6746,5.4925 -0.0284,2.5451 v 0 c 3.3936,0.0379 5.174,1.0007 5.1393,4.1114 v 0 l -0.1728,15.4597 z m -0.3519,31.4846 c -0.039,3.4878 -2.5267,6.7595 -6.2971,6.7174 -8.107,-0.0906 -10.3214,-12.8425 -10.2487,-19.3469 0.1127,-10.0864 2.9339,-17.88 9.5324,-17.8062 3.8648,0.0432 7.321,2.9101 7.2799,6.5865 v 0 l -0.2665,23.8492 z m -29.2675,12.4946 0.0284,-2.5451 -5.1741,-1.0007 0.4804,-42.9852 -14.6605,4.2672 -0.0285,2.5454 v 0 c 3.3936,0.0379 5.1751,0.9062 5.1309,4.8655 v 0 l -0.3487,31.2018 -5.1952,0.8848 -0.0284,2.545 19.7957,0.2213 z m -15.0648,-60.7889 c -0.039,3.4881 2.5739,5.8743 5.7789,5.9102 3.2052,0.0358 5.8708,-2.2914 5.9098,-5.7795 0.0379,-3.3933 -2.574,-5.8737 -5.7792,-5.9095 -3.2049,-0.0358 -5.8716,2.3855 -5.9095,5.7788 v 0 z" />
  </g>
</svg>
