<?xml version="1.0" encoding="UTF-8" standalone="no"?>
<!-- Creator: CorelDRAW 2018 (64 Bit) -->

<svg
   xmlns:dc="http://purl.org/dc/elements/1.1/"
   xmlns:cc="http://creativecommons.org/ns#"
   xmlns:rdf="http://www.w3.org/1999/02/22-rdf-syntax-ns#"
   xmlns:svg="http://www.w3.org/2000/svg"
   xmlns="http://www.w3.org/2000/svg"
   xmlns:sodipodi="http://sodipodi.sourceforge.net/DTD/sodipodi-0.dtd"
   xmlns:inkscape="http://www.inkscape.org/namespaces/inkscape"
   xml:space="preserve"
   width="5000px"
   height="2000px"
   version="1.1"
   style="shape-rendering:geometricPrecision; text-rendering:geometricPrecision; image-rendering:optimizeQuality; fill-rule:evenodd; clip-rule:evenodd"
   viewBox="0 0 5000 2000"
   id="svg56"
   sodipodi:docname="videira-logo.svg"
   inkscape:version="0.92.3 (2405546, 2018-03-11)"><sodipodi:namedview
   pagecolor="#ffffff"
   bordercolor="#666666"
   borderopacity="1"
   objecttolerance="10"
   gridtolerance="10"
   guidetolerance="10"
   inkscape:pageopacity="0"
   inkscape:pageshadow="2"
   inkscape:window-width="1366"
   inkscape:window-height="705"
   id="namedview58"
   showgrid="false"
   borderlayer="false"
   inkscape:pagecheckerboard="true"
   inkscape:zoom="0.21496046"
   inkscape:cx="2746.7154"
   inkscape:cy="781.17526"
   inkscape:window-x="-8"
   inkscape:window-y="-8"
   inkscape:window-maximized="1"
   inkscape:current-layer="svg56" /><defs
   id="defs4" /><g
   id="Camada_x0020_1"
   style="fill:white"
   transform="matrix(1.2401984,0,0,1.2401984,-602.82272,-316.27039)">
  
  <path
   class="fil2"
   d="m 777.606,569.024 c -4.059,0.081 -5.445,-0.645 -9.398,-2.414 -2.041,-0.914 -2.702,-1.176 -4.812,-2.579 -3.529,-2.348 -0.16,0.676 -3.592,-3.002 -7.995,1.932 -4.318,-1.183 -5.321,-2.177 -5.08,0.338 -5.404,-0.628 -10.993,-2.783 -1.477,-0.57 -5.184,-1.98 -6.143,-2.5 -4.305,-2.336 -1.94,-0.773 -4.346,-3.176 -6.347,0.022 -30.912,-10.418 -39.333,-13.302 -23.299,-7.98 -60.06,-17.063 -84.47,-22.134 -8.089,-1.681 -37.4,-9.935 -42.455,-5.61 -3.394,48.134 5.36,141.464 17.058,183.044 19.579,69.592 61.95,128.426 64.578,137.488 -11.57,-0.417 -25.216,-3.092 -36.979,-4.192 l -40.223,-4.602 -61.379,0.622 c -4.83,1.11 -24.03,-0.131 -24.589,6.76 -5.315,58.062 14.747,139.277 32.039,184.09 20.241,52.455 54.448,96.522 90.916,126.237 76.637,62.444 190.969,95.397 292.754,70.821 7.545,-1.822 13.164,-3.598 20.657,-5.851 9.006,-2.709 13.892,-5.878 23.773,-6.868 5.596,-1.007 10.158,-4.094 15.113,-6.573 3.175,-1.588 4.93,-2.542 7.624,-4.08 l 8.49,-3.526 c 1.409,-4.965 -0.625,-1.54 1.946,-5.256 -61.25,-2.399 -86.446,1.899 -151.824,-15.001 -95.413,-24.665 -140.372,-63.483 -199.654,-134.43 -12.089,-14.469 -62.326,-83.731 -63.266,-102.947 -1.815,-1.661 -1.03,-0.592 -2.632,-3.071 -1.367,-2.115 -0.815,-0.913 -1.864,-3.474 -1.421,-3.472 -1.883,-4.921 -1.264,-8.534 -3.61,-3.427 -0.825,2.372 -4.003,-6.173 -1.216,-3.268 -1.148,-4.548 -0.884,-7.94 -4.039,-4.17 -3.712,-7.39 -2.887,-13.534 40.226,-1.598 108.856,13.871 149.419,29.77 10.816,4.239 32.639,16.225 41.781,18.117 l -0.62,-7.928 c 0.441,-31.237 -15.42,-66.68 -39.006,-80.963 -4.898,-2.967 -12.568,-5.672 -16.073,-8.939 -4.154,-3.871 -15.276,-22.871 -19.081,-29.345 -14.996,-25.522 -60.134,-102.665 -56.129,-138.93 -2.517,-3.442 -2.03,-5.363 -2.434,-11.156 -0.311,-4.453 -0.473,-9.012 -0.573,-13.477 -0.204,-9.027 0.051,-17.737 0.612,-26.727 l 0.838,-11.931 0.852,-6.438 c 0.622,-10.203 1.369,-20.225 4.967,-28.132 19.857,1.067 102.679,41.58 119.921,51.93 17.486,10.497 33.588,21.787 49.809,35.256 l 43.423,42.838 c 0.693,-5.593 -0.258,-13.915 2.843,-18.454 -5.518,-38.847 18.64,-132.21 31.389,-163.593 l 2.811,-10.263 4.769,-16.593 2.445,-12.101 3.612,-12.674 1.107,-6.942 c 17.872,-0.993 45.964,21.914 54.852,30.443 33.179,31.842 53.966,74.956 68.439,120.233 1.682,5.263 0.952,2.485 2.265,7.604 l 6.091,25.854 c 1.197,7.095 0.554,11.71 4.396,15.701 3.968,3.496 39.278,10.513 46.628,10.14 l 0.658,-2.781 7.934,-36.245 1.606,-8.547 4.327,-18.664 6.558,-30.179 c 11.307,2.805 43.638,35.25 51.578,43.679 64.884,68.885 70.199,122.393 68.759,220.294 2.012,1.354 -0.439,1.526 3.355,-0.452 1.687,-6.988 6.223,-15.899 8.901,-23.825 9.685,-28.655 15.036,-59.464 14.75,-90.948 -0.803,-88.601 -63.587,-181.582 -137.724,-210.318 -13.341,-5.171 -27.864,-8.413 -43.126,-8.107 -6.836,0.137 -10.538,-0.495 -12.086,4.647 -2.537,8.549 -11.671,55.668 -16.224,61.822 -3.84,-4.192 -8.659,-13.388 -11.089,-19.843 l -15.68,-27.529 c -3.93,-3.981 -3.469,-3.387 -4.141,-7.954 -2.801,-2.111 -0.884,-0.257 -3.634,-3.56 -0.131,-0.158 -1.865,-2.631 -2.096,-2.97 l -13.579,-19.864 c -17.66,-25.04 -40.07,-50.885 -63.515,-70.052 -19.71,-16.114 -86.361,-61.719 -100.793,-75.117 -2.315,1.687 -5.896,-3.885 1.199,12.667 1.715,4.001 3.256,8.579 4.889,13.504 24.785,74.751 8.99,82.929 -6.136,149.7 -4.648,20.518 -6.39,41.296 -10.522,61.478 -6.268,-0.856 -11.973,-3.054 -16.159,-7.469 z"
   id="path14"
   style="fill:white"
   inkscape:connector-curvature="0" /><path
   class="fil2"
   d="m 1446.92,1404.184 c -4.249,6.773 -16.13,13.644 -25.653,16.704 -3.758,3.755 -20.311,9.166 -27.501,10.424 l -9.232,1.667 c -17,4.249 -38.51,2.152 -54.99,-2.157 -11.874,-3.104 -36.563,-13.405 -43.11,-20.229 -4.443,-4.631 -5.584,-25.474 -15.993,-45.773 -7.939,-15.484 -16.033,-25.151 -25.428,-37.316 18.657,-7.005 38.965,-5.39 69.319,-33.449 8.935,-8.259 16.019,-16.296 23.624,-28.134 8.37,-13.029 9.908,-22.413 16.164,-33.788 l 4.36,-21.871 0.082,-6.322 -0.052,-34.42 c 11.923,0.589 15.67,10.027 34.054,21.366 10.849,6.691 21.481,11.936 35.412,16.447 26.307,8.519 31.69,1.727 40.235,13.104 25.806,34.358 35.125,79.263 21.619,122.376 -7.287,23.262 -26.694,54.224 -42.91,61.371 z m -4.716,-498.631 c 1.999,2.242 0.329,2.087 7.402,3.387 0.325,0.059 5.939,0.206 6.719,0.232 24.099,0.822 50.271,12.11 68.734,25.659 46.987,34.481 65.111,100.239 41.351,155.578 -9.301,21.663 -32.339,51.851 -51.64,58.504 -3.376,4.986 -19.974,11.769 -28.385,13.475 l -5.009,1.386 -10.018,2.385 c -28.948,11.072 -76.323,-5.53 -96.661,-19.221 -18.856,-12.692 -46.64,-40.605 -51.476,-70.023 -2.188,2.305 -1.458,-1.537 -1.987,4.892 l 2.603,16.382 c -5.342,-4.639 -12.046,-8.061 -15.899,-15.536 -3.018,-0.893 -2.377,-0.47 -6.157,-2.936 -4.41,-2.877 -2.589,-0.917 -5.439,-5.264 -4.547,-0.868 -19.894,-7.551 -24.65,-12.463 3.05,-4.254 6.798,-5.831 10.922,-8.545 l 28.449,-21.158 c -18.228,9.311 -31.763,31.33 -52.902,26.432 -16.075,-3.726 -56.762,-8.122 -68.031,-0.068 4.743,1.679 23.856,2.11 31.665,3.774 14.259,3.039 16.737,3.095 26.382,9.075 31.928,14.729 60.937,49.134 64.075,94.059 1.686,24.134 -3.82,44.899 -14.098,63.841 -7.016,12.931 -25.145,35.767 -38.285,39.664 -3.339,4.664 -16.193,10.485 -24.196,12.372 l -16.439,4.407 -11.098,1.904 c -33.35,0.944 -55.615,-6.536 -76.591,-21.184 -12.582,-8.786 -37.5,-35.134 -39.919,-54.792 -1.756,1.481 -4.962,-0.64 -1.438,12.579 10.72,40.216 28.902,52.796 33.567,62.526 l -14.687,2.47 -0.275,-0.916 c 8.916,7.351 10.824,-4.414 30.231,10.776 44.747,35.025 54.804,12.174 76.032,44.13 10.843,16.321 19.377,36.421 20.66,59.265 1.159,20.639 -3.045,56.038 -16.482,66.847 -0.015,11.768 -31.449,41.118 -44.356,45.368 -3.488,3.799 -11.849,7.289 -19.07,9.144 l -20.49,5.855 -6.082,0.535 c -33.252,3.317 -60.959,-6.151 -81.933,-20.928 -13.991,-9.856 -41.375,-37.304 -44.278,-60.581 -1.116,0.741 -3.639,0.036 -2.03,9.957 l 8.57,26.58 c 29.166,69.868 110.732,106.532 183.715,78.294 13.068,-5.056 21.559,-11.86 32.593,-16.737 8.99,-4.681 20.401,-17.012 26.387,-24.42 8.728,-10.799 12.763,-19.284 19.756,-30.875 l 8.881,-24.393 4.595,-25.448 c 9.36,5.587 13.79,12.399 33.945,22.643 13.099,6.659 27.5,11.794 43.686,14.754 17.092,3.125 37.721,3.442 54.861,0.432 25.52,-4.481 31.83,-10.532 45.965,-14.071 15.048,-7.732 31.238,-19.09 43.219,-32.087 l 12.228,-13.311 7.293,-10.838 4.156,-8.414 5.017,-9.133 2.079,-4.162 8.34,-25.365 c 4.689,2.1 10.874,6.923 14.038,12.541 l -16.611,3.731 c 27.277,2.393 18.23,-1.576 39.299,9.362 11.88,6.167 22.103,9.703 36.734,13.438 30.361,7.752 69.519,75.475 46.999,138.149 -7.636,21.251 -27.924,51.269 -44.55,56.81 -4.287,5.799 -15.044,10.947 -23.935,13.346 l -10.018,3.578 -23.069,5.093 c -32.384,1.939 -60.09,-6.861 -80.778,-21.625 -14.289,-10.199 -40.365,-36.444 -44.009,-60.618 -1.195,0.738 -2.772,-1.354 -1.972,8.109 l 6.659,23.349 c 23.053,62.768 88.956,101.931 156.384,91.737 12.805,-1.936 21.225,-6.061 34.085,-8.88 l 6.283,-1.223 c 3.791,-4.706 10.507,-7.098 15.52,-10.269 4.593,-2.905 9.028,-7.462 14.696,-9.677 3.26,-6.345 15.127,-16.197 21.384,-23.816 6.076,3.897 10.408,11.768 15.801,16.91 16.906,16.115 41.801,30.01 66.136,33.706 31.422,4.771 58.553,-1.294 84.233,-15.323 8.987,-4.91 13.552,-10.285 21.556,-14.642 7.07,-8.724 13.264,-13.444 20.651,-25.023 6.345,-9.945 10.64,-24.46 15.239,-31.977 4.362,-28.08 8.225,-42.087 0,-71.148 -5.869,-20.735 -16.985,-38.976 -29.048,-51.015 -28.392,-28.335 -62.561,-46.422 -119.439,-36.714 -0.068,0.488 32.269,5.102 37.56,6.855 96.978,32.119 91.143,163.527 10.669,194.529 l -13.148,4.481 -13.358,3.272 c -5.847,1.218 -12.147,1.735 -18.374,1.685 l -14.754,-1.642 c -4.257,-1.387 -2.009,-0.559 -3.825,-1.807 -15.444,1.707 -42.646,-16.636 -49.788,-24.511 1.301,-6.967 10.326,-22.232 13.573,-33.075 19.748,-65.928 -11.383,-105.764 -12.926,-117.19 -2.294,-1.718 -1.167,-0.188 -2.959,-2.76 -2.126,-3.049 -1.266,-1.898 -2.763,-5.607 l -27.762,-30.066 c 6.21,-2.316 14.949,-2.051 33.201,-9.197 10.728,-4.2 20.618,-9.325 29.583,-15.764 16.921,-12.154 31.371,-28.163 41.386,-46.72 2.396,-5.483 8.772,-22.138 12.565,-26.693 4.106,-28.072 8.402,-34.306 5.033,-67.348 -8.224,-30.002 -5.687,-29.673 -22.158,-56.487 -3.008,-4.896 -2.032,-2.305 -2.722,-6.468 -2.907,-1.938 -0.839,-0.139 -4.129,-3.316 -13.235,-12.78 -20.483,-28.03 -53.1,-42.132 -27.506,-11.892 -50.262,-14.597 -84.387,-11.187 l -4.891,3.11 c 53.584,3.755 82.573,22.302 104.683,56.148 22.114,33.852 25.137,85.511 5.082,119.902 -0.146,0.251 -1.588,2.467 -2.093,3.108 -1.838,2.333 -0.7,1.081 -2.772,2.751 -1.186,7.266 -8.194,13.87 -13.224,19.432 -5.567,6.158 -10.592,12.287 -19.321,15.898 -2.64,5.762 -22.709,14.594 -32.374,17.157 l -12.708,3.145 -8.349,1.537 c -31.245,6.303 -70.242,-7.517 -88.537,-23.672 -1.744,-12.222 -0.063,-25.638 -2.214,-39.56 -1.685,-10.913 -4.59,-21.803 -8.363,-31.73 -11.709,-30.807 -20.003,-33.648 -29.981,-50.613 4.155,-3.806 7.359,-4.314 12.957,-6.311 19.069,-6.804 40.875,-20.433 55.907,-33.833 4.809,-4.286 12.236,-15.088 16.812,-16.641 l 4.871,-6.68 7.847,-13.521 1.724,-3.832 3.517,-5.952 c 1.415,-3.766 1.199,-2.692 2.852,-6.114 l 1.714,-3.483 c 0.124,-0.25 0.48,-0.533 0.569,-1.136 0.09,-0.603 0.342,-0.776 0.558,-1.14 6.747,-27.24 13.015,-40.038 9.993,-73.411 -2.08,-22.972 -9.979,-45.192 -19.84,-62.157 -34.645,-59.602 -83.168,-66.85 -90.621,-72.569 -13.199,-2.305 -24.049,-5.273 -38.313,-5.847 -14.721,-0.594 -27.107,2.574 -39.245,2.559 z"
   id="path16"
   style="fill:white"
   inkscape:connector-curvature="0" /><path
   class="fil2"
   d="m 1611.116,586.401 c 0.408,7.044 25.729,38.647 29.577,45.425 -2.779,-4.558 -18.9,-14.462 -26.413,-18.476 -12.22,-6.53 -20.73,-8.311 -32.799,-13.196 -20.184,-5.963 -43.277,-7.493 -65.011,-4.171 -9.483,1.45 -19.378,4.056 -27.819,7.329 -5.244,2.034 -20.433,10.807 -23.941,11.154 -6.789,12.213 -91.272,62.049 -17.436,191.11 0.37,0.647 3.142,5.418 3.21,5.5 5.759,6.997 2.338,3.908 4.064,0.438 -10.764,-13.025 -16.377,-58.035 -14.553,-80.055 0.389,-4.688 0.743,-8.38 3.704,-11.9 -0.985,-11.768 10.269,-31.282 16.815,-40.794 3.633,-5.277 4.907,-7.802 9.149,-9.936 2.002,-4.484 1.567,-3.975 5.18,-7.608 3.429,-3.447 2.829,-3.119 6.44,-4.17 3.281,-5.399 -0.134,-2.913 5.69,-4.77 2.552,-4.165 0.239,-2.438 4.696,-3.48 3.576,-4.521 8.577,-6.412 14.215,-8.191 42.253,-13.336 84.554,15.094 104.275,50.412 25.277,45.268 2.017,121.892 -33.222,127.177 -1.645,0.833 -6.162,1.345 -10.027,1.104 -1.155,-0.072 -4.747,-0.644 -5.645,-0.948 -5.64,-1.91 -1.507,0.102 -4.559,-2.51 -6.232,1.208 -2.598,0.884 -4.049,-1.522 -3.382,0.009 -2.611,0.549 -6.117,-1.128 -5.293,-2.532 -2.89,-1.582 -4.926,-4.17 -4.465,-0.893 -6.28,-2.593 -10.959,-6.725 -15.252,-13.467 -48.134,-61.609 -51.983,-76.218 -0.313,0.374 -0.681,0.5 -0.784,1.232 -0.276,1.969 -2.729,0.352 -1.865,14.082 2.073,32.903 14.97,65.616 34.89,90.649 34.276,43.073 78.697,24.141 108.386,17.468 5.19,-4.42 16.847,-9.308 25.43,-16.587 11.919,-10.108 15.702,-17.895 22.455,-23.333 1.788,-6.747 7.885,-15.398 11.207,-24.651 17.416,-48.511 -0.355,-83.603 -0.733,-99.275 -4.011,-3.737 -6.801,-11.921 -8.584,-17.7 -0.235,-0.202 -0.553,-0.276 -2.023,-2.289 -0.263,-0.359 -1.805,-2.707 -1.899,-2.877 -2.692,-4.872 -1.856,-2.276 -2.526,-6.995 -4.715,-2.839 -7.662,-6.582 -8.909,-12.264 37.076,-1.562 59.209,8.219 76.002,28.138 7.822,9.277 13.636,20.612 17.839,33.715 3.462,10.791 4.794,35.214 -4.535,45.044 0.192,19.418 -54.08,67.967 -72.234,74.582 -0.148,5.985 2.037,4.182 9.087,4.344 2.54,0.059 9.107,-0.805 11.795,-1.25 19.292,-3.199 38.312,-14.989 51.831,-20.064 1.859,-3.231 9.895,-9.515 13.196,-13.399 2.434,-2.865 9.719,-13.28 12.141,-14.883 l 9.16,-18.166 6.934,-19.207 1.702,-7.714 1.331,-8.35 c 2.349,-27.093 1.014,-39.6 -6.743,-63.361 -6.072,-26.633 -35.056,-60.768 -60.274,-76.027 -32.913,-19.914 -89.384,-16.51 -109.833,-0.543 z"
   id="path20"
   style="fill:white"
   inkscape:connector-curvature="0" /><path
   class="fil2"
   d="m 1271.888,521.261 2.042,2.1 c 0.16,0.211 0.458,0.64 0.621,0.876 l 5.576,9.298 c 89.875,142.593 101.475,296.448 -10.881,433.189 l -37.649,42.346 c -1.861,2.597 -0.647,0.379 -1.529,2.753 2.332,10.254 5.924,6.285 8.825,5.45 1.874,12.726 -4.764,7.432 -9.889,5.396 -6.946,-2.759 -13.532,10.13 -2.821,11.452 4.073,0.502 6.288,-0.798 8.078,-3.867 -3.785,2.749 -2.212,0.428 -2.047,6.688 9.389,3.671 -1.832,2.145 9.725,2.657 11.515,0.509 5.954,0.601 10.545,2.809 18.556,8.927 -1.579,-5.844 18.497,-4.372 19.897,1.46 -2.736,10.374 13.68,5.313 l 3.436,-4.544 c 0.188,-0.362 0.894,-1.569 1.064,-2.055 l 1.053,-9.089 c 3.891,9.63 -0.989,2.93 7.417,5.748 1.274,-3.213 1.137,-1.094 1.74,-6.987 27.535,-3.796 5.245,-4.259 17.871,-8.307 0.426,-0.136 5.707,-0.824 8.183,-0.705 8.337,-3.639 25.467,-26.848 32.55,-37.005 5.06,-7.257 9.202,-13.401 13.636,-21.502 2.458,-4.492 7.845,-17.346 11.202,-20.494 l 3.138,-7.355 c 0.716,-4.444 -0.411,-1.004 1.089,-5.105 0.925,-2.529 1.473,-2.363 2.366,-3.469 1.116,-8.421 7.833,-25.024 10.428,-35.592 3.174,-12.928 4.885,-24.996 7.025,-38.918 l 2.148,-23.151 0.098,-38.37 c -0.859,-19.516 -3.273,-37.34 -7.259,-55.898 -3.609,-16.8 -10.624,-33.383 -13.849,-48.87 l -5.322,-13.779 -5.07,-11.689 c -2.264,-2.265 -10.799,-20.276 -13.314,-24.861 -4.187,-7.634 -10.185,-17.558 -15.03,-25.034 -5.079,-7.838 -10.942,-16.216 -16.573,-23.518 -2.988,-3.875 -16.441,-19.21 -17.491,-23.468 l -43.425,-41.066 z"
   id="path22"
   style="fill:white"
   inkscape:connector-curvature="0" /><path
   class="fil2"
   d="m 1038.944,1038.638 c -9.131,-8.321 -36.744,-59.825 -44.859,-75.42 -13.692,-26.311 -26.263,-54.724 -37.177,-84.544 -11.344,-30.995 -20.22,-63.345 -25.52,-97.051 -10.243,-65.131 -2.286,-70.79 -5.345,-112.971 l 0.822,-15.93 c -11.233,16.7 -24.443,87.697 -26.953,113.772 -4.53,47.046 -1.994,85.408 13.572,123.642 19.418,47.698 50.869,91.02 86.939,123.516 l 28.563,23.282 c 11.501,8.99 9.05,3.868 9.958,1.704 z"
   id="path24"
   style="fill:white"
   inkscape:connector-curvature="0" /><path
   class="fil2"
   d="m 1802.901,657.592 -8.065,48.62 c 15.21,12.273 39.69,19.104 53.046,56.033 5.424,14.996 6.25,31.052 -0.446,46.306 -6.574,14.973 -16.756,19.505 -25.638,29.934 15.332,-0.287 19.96,-5.125 32.106,-9.561 25.243,-16.059 36.663,-54.943 26.766,-92.804 -5.675,-21.71 -20.476,-45.053 -37.141,-58.055 -5.337,-4.165 -13.54,-8.989 -17.791,-14.409 -6.585,-1.186 -13.291,-6.347 -20.449,-9.16 -1.995,1.911 -0.897,-1.287 -2.388,3.096 z"
   id="path26"
   style="fill:white"
   inkscape:connector-curvature="0" /><path
   class="fil2"
   d="m 1169.019,1062.995 c -5.847,3.34 -11.549,8.442 -17.769,12.805 -6.008,4.214 -11.745,8 -17.936,12.167 -9.295,6.256 -31.749,20.996 -37.414,21.75 2.115,4.26 -0.188,2.006 6.438,2.622 23.195,2.158 120.023,-27.751 120.409,-27.774 0.302,-0.314 0.814,-1.181 0.98,-0.866 l 24.45,-12.199 c -9.645,-5.98 -12.123,-6.036 -26.382,-9.075 -7.809,-1.664 -26.922,-2.095 -31.665,-3.774 11.269,-8.054 51.956,-3.658 68.031,0.068 21.139,4.898 34.674,-17.121 52.902,-26.432 6.294,-6.283 10.678,-8.726 14.362,-14.877 -2.476,-0.119 -7.757,0.569 -8.183,0.705 -12.626,4.048 9.664,4.511 -17.871,8.307 -0.603,5.893 -0.466,3.774 -1.74,6.987 -8.406,-2.818 -3.526,3.882 -7.417,-5.748 l -1.053,9.089 c -0.17,0.486 -0.876,1.693 -1.064,2.055 l -3.436,4.544 c -16.416,5.061 6.217,-3.853 -13.68,-5.313 -20.076,-1.472 0.059,13.299 -18.497,4.372 -4.591,-2.208 0.97,-2.3 -10.545,-2.809 -11.557,-0.512 -0.336,1.014 -9.725,-2.657 -0.165,-6.26 -1.738,-3.939 2.047,-6.688 -1.79,3.069 -4.005,4.369 -8.078,3.867 -10.711,-1.322 -4.125,-14.211 2.821,-11.452 5.125,2.036 11.763,7.33 9.889,-5.396 -2.901,0.835 -6.493,4.804 -8.825,-5.45 -6.72,3.079 -10.565,8.31 -15.831,13.447 -5.421,5.29 -8.846,8.223 -14,12.748 -10.966,9.626 -20.267,17.459 -31.218,24.977 z"
   id="path28"
   style="fill:white"
   inkscape:connector-curvature="0" /><g
   id="_837185536"
   style="fill:white">
   <path
   class="fil2"
   d="m 2867.549,831.181 c 38.909,-7.228 72.364,17.574 80.914,46.003 5.31,17.654 2.363,103.257 2.363,128.03 0,21.973 1.297,115.331 -0.898,129.312 -5.214,33.221 -33.513,61.271 -72.93,53.167 -60.095,-12.355 -85.059,-103.243 -87.3,-174.129 -2.351,-74.357 11.53,-170.064 77.851,-182.383 z m 33.153,-225.053 0.189,25.433 c 16.716,-4.429 36.571,4.243 43.647,14.082 9.169,12.747 6.277,36.305 6.277,53.979 0,39.061 1.085,79.694 -0.162,118.561 -15.211,-4.979 -18.495,-11.796 -48.031,-17.336 -53.988,-10.126 -112.05,9.513 -142.862,48.464 -81.652,103.225 -87.686,314.346 15.909,389.366 27.396,19.84 67.412,28.328 104.354,13.467 34.022,-13.686 54.738,-38.226 75.687,-56.765 1.221,1.391 0.868,0.567 2.16,3.36 0.026,0.056 1.254,3.389 1.351,3.714 5.67,19.081 7.797,39.966 24.873,56.692 9.543,-0.822 85.83,-26.004 100.933,-31.009 l 0.569,-24.006 c -17.551,-5.762 -37.313,-5.034 -42.4,-43.893 -3.64,-27.811 -1.349,-447.837 -1.349,-520.731 0,-24.121 2.432,-65.278 -0.459,-87.344 -6.048,0.563 -125.829,47.896 -140.686,53.966 z"
   id="path32"
   style="fill:white"
   inkscape:connector-curvature="0" />
   <path
   class="fil2"
   d="m 1978.946,645.34 6.256,0.861 87.824,292.208 96.052,316.026 117.694,0.094 c -2.55,-11.802 -9.968,-28.375 -14.413,-40.075 -7.943,-20.906 -4.204,-21.518 2.402,-42.004 26.156,-81.12 50.158,-165.158 76.38,-247.681 17.368,-54.66 33.876,-110.18 50.706,-164.603 21.273,-68.79 21.553,-104.472 93.812,-121.462 l 1.334,-28.705 -179.145,-0.106 c -0.219,33.583 -4.258,27.045 16.531,33.025 15.04,4.326 31.961,12.052 40.706,24.544 13.498,19.281 1.285,49.327 -4.803,69.531 -13.691,45.439 -26.857,89.577 -40.98,134.438 l -61.55,201.976 c -3.708,11.962 -6.598,22.002 -10.208,33.487 l -12.342,32.614 C 2227.717,1067.739 2096.579,659.96 2098.473,645.707 l 48.66,-7.049 -0.75,-28.714 -210.721,-0.315 -0.489,29.331 z"
   id="path34"
   style="fill:white"
   inkscape:connector-curvature="0" />
   <path
   class="fil2"
   d="m 4270.844,993.968 c 1.775,53.394 0.074,109.576 0.201,163.31 0.038,15.728 -6.408,17.491 -15.777,23.793 -8.237,5.539 -18.189,10.014 -29.074,12.702 -81.479,20.118 -122.812,-117.885 -13.964,-177.628 11.013,-6.045 43.981,-21.62 58.614,-22.177 z M 4117.538,802.502 c -6.948,6.655 -26.21,8.676 -34.775,29.159 -7.006,16.755 -2.029,39.064 8.493,48.18 17.879,15.49 62.405,21.256 87.87,-18.72 12.343,-19.375 14.701,-33.271 31.745,-30.535 15.322,2.46 30.89,14.727 38.739,24.431 21.028,25.999 25.1,62.177 20.969,104.325 -23.891,11.374 -51.36,20.367 -75.923,31.024 -48.244,20.931 -98.191,45.665 -125.181,91.761 -11.366,19.409 -24.41,62.616 -15.957,89.226 -1.023,20.521 21.158,51.612 29.976,60.203 37.759,36.792 98.158,35.479 140.199,9.804 17.672,-10.793 40.379,-29.062 50.384,-41.71 10.981,24.475 16.984,61.564 72.506,60.235 37.796,-0.905 69.597,-28.813 83.014,-50.943 l -14.573,-18.882 c -5.062,1.745 -48.211,31.809 -52.591,-11.515 -5.57,-55.082 7.876,-223.101 -4.785,-266.269 -21.975,-74.928 -125.947,-113.76 -199.772,-114.036 -14.496,-0.055 -30.296,4.557 -40.338,4.262 z"
   id="path36"
   style="fill:white"
   inkscape:connector-curvature="0" />
   <path
   class="fil2"
   d="m 3194.306,999.879 c -1.766,-54.737 11.692,-158.917 76.201,-169.027 50.524,-7.918 82.844,25.077 79.1,80.772 -1.872,27.833 -10.53,43.444 -28.404,53.368 -11.68,6.486 -110.621,33.078 -126.897,34.887 z m 242.268,135.559 -6.67,-2.859 c -7.411,5.657 -18.863,21.761 -25.676,28.987 -7.619,8.08 -18.836,17.125 -32.309,22.78 -28.766,12.074 -64.36,8.911 -91.016,-3.38 -40.692,-18.762 -78.876,-77.56 -77.382,-141.996 32.557,-13.138 233.731,-58.484 249.971,-68.824 1.049,-52.602 -23.748,-96.623 -48.313,-123.862 -26.606,-29.501 -66.175,-50.072 -123.87,-47.618 -159.118,20.56 -196.014,237.361 -150.299,350.167 25.18,62.135 74.686,114.962 160.322,110.834 42.207,-2.036 73.588,-16.306 99.228,-36.627 17.009,-13.48 57.763,-55.931 63.03,-72.545 -4.485,-4.348 -15.46,-10.992 -17.016,-15.057 z"
   id="path38"
   style="fill:white"
   inkscape:connector-curvature="0" />
   <path
   class="fil2"
   d="m 3880.713,1215.242 -10.048,-1.61 c -8.665,-20.251 -5.909,-121.738 -4.102,-148.623 3.03,-45.081 12.286,-127.34 39.278,-161.594 8.484,-10.767 15.422,-7.488 30.201,-3.393 23.461,6.502 46.562,9.014 67.079,-2.828 31.758,-18.331 39.556,-55.081 21.248,-79.034 -8.56,-11.198 -15.689,-10.141 -23.156,-17.346 -28.877,0.88 -54.373,-16.834 -97.705,40.175 -27.185,35.767 -39.626,82.735 -49.501,95.886 -3.224,-5.262 -9.162,-55.294 -14.501,-76.15 -5.594,-21.85 -14.228,-50.282 -30.581,-61.743 l -101.544,34.615 -0.263,24.312 c 70.6,9.136 66.394,85.059 66.394,143.965 0,70.147 1.348,141.623 -0.127,211.606 l -49.313,9.178 -0.57,24.597 h 196.46 l 0.142,-24.09 z"
   id="path40"
   style="fill:white"
   inkscape:connector-curvature="0" />
   <path
   class="fil2"
   d="m 3530.094,1214.687 -36.836,7.024 c -6.948,2.473 -5.769,-2.683 -5.515,25.6 l 190.612,-0.032 0.263,-24.486 -46.69,-8.945 c -3.003,-2.375 -3.302,0.404 -3.313,-11.586 l -0.022,-403.487 c -18.879,3.33 -50.777,14.656 -70.32,20.804 -12.77,4.018 -23.372,7.028 -36.002,10.916 -40.45,12.452 -34.786,3.821 -34.532,34.454 16.669,3.901 26.006,-0.667 38.278,10.725 9.579,8.891 11.597,21.354 11.678,37.654 l -0.075,299.829 z"
   id="path42"
   style="fill:white"
   inkscape:connector-curvature="0" />
   <path
   class="fil2"
   d="m 2477.973,841.015 0.364,24.511 c 38.308,1.763 49.599,11.391 49.819,49.5 0.542,93.603 2.043,208.236 -0.133,298.409 l -49.474,9.277 -0.494,24.317 190.666,0.272 c 0.631,-24.673 3.557,-24.376 -10.289,-26.634 l -39.256,-7.411 -0.069,-414.436 z"
   id="path44"
   style="fill:white"
   inkscape:connector-curvature="0" />
   <path
   class="fil2"
   d="m 3569.69,606.829 c -70.342,16.276 -48.718,125.859 25.992,109.863 71.856,-15.385 49.589,-127.352 -25.992,-109.863 z"
   id="path46"
   style="fill:white"
   inkscape:connector-curvature="0" />
   <path
   class="fil2"
   d="m 2558.653,607.347 c -70.958,20.067 -43.847,127.49 29.698,108.816 26.631,-6.762 48.739,-32.194 40.156,-68.312 -6.562,-27.618 -35.058,-50.344 -69.854,-40.504 z"
   id="path48"
   style="fill:white"
   inkscape:connector-curvature="0" />
   <path
   class="fil2"
   d="m 4438.705,735.779 c 34.684,-4.542 62.312,21.527 66.375,50.941 4.993,36.145 -21.505,64.818 -51.695,68.452 -79.282,9.541 -94.708,-108.915 -14.68,-119.393 z m -8.876,-8.432 c -33.364,8.118 -63.021,40.765 -52.44,85.09 7.634,31.98 42.623,61.268 84.778,51.123 31.946,-7.688 61.53,-40.906 51.521,-84.082 -7.529,-32.476 -41.727,-62.382 -83.859,-52.131 z"
   id="path50"
   style="fill:white"
   inkscape:connector-curvature="0" />
   <path
   class="fil2"
   d="m 4428.764,765.297 c 13.969,-0.522 39.95,-5.511 40.215,12.831 0.269,18.649 -25.925,14.658 -40.83,13.526 z m 41.878,31.179 c 4.491,-6.241 13.955,-13.118 7.185,-29.281 -6.303,-15.044 -39.435,-11.129 -60.002,-11.144 l 0.198,78.917 10.069,-0.559 0.302,-33.058 c 50.564,-2.215 36.467,3.769 41.321,32.938 l 12.621,0.529 c -6.628,-16.97 0.999,-28.575 -11.694,-38.342 z"
   id="path52"
   style="fill:white"
   inkscape:connector-curvature="0" />
  </g></g><metadata
   id="metadata74"><rdf:RDF><cc:Work
       rdf:about=""><dc:title /><dc:format>image/svg+xml</dc:format><dc:type
         rdf:resource="http://purl.org/dc/dcmitype/StillImage" /></cc:Work></rdf:RDF></metadata><flowRoot
   xml:space="preserve"
   id="flowRoot76"
   style="font-style:normal;font-weight:normal;font-size:40px;line-height:10.25;font-family:sans-serif;letter-spacing:0px;word-spacing:0px;fill:#000000;fill-opacity:1;stroke:none"><flowRegion
     id="flowRegion78"
     style="line-height:10.25"><rect
       id="rect80"
       width="2302.6316"
       height="315.78946"
       x="2151.3157"
       y="1355.2632"
       style="line-height:10.25" /></flowRegion><flowPara
     id="flowPara82">pal</flowPara></flowRoot><text
   xml:space="preserve"
   style="font-style:normal;font-weight:normal;font-size:49.60793304px;line-height:1.25;font-family:sans-serif;letter-spacing:0px;word-spacing:0px;fill:black;fill-opacity:1;stroke:none;stroke-width:1.24019825"
   x="2096.8826"
   y="1693.6223"
   id="text86"><tspan
     sodipodi:role="line"
     id="tspan84"
     x="2096.8826"
     y="1693.6223"
     style="font-style:normal;font-variant:normal;font-weight:100;font-stretch:normal;font-size:413.39944458px;line-height:620.09918213px;font-family:HelvLight;-inkscape-font-specification:'HelvLight Thin';letter-spacing:0px;fill:white;stroke-width:1.24019825">Palmas-TO</tspan></text>

</svg>